<?xml version="1.0" encoding="UTF-8"?><svg id="uuid-8f73d3c0-89a6-4b6c-8192-451a033334d7" xmlns="http://www.w3.org/2000/svg" xmlns:xlink="http://www.w3.org/1999/xlink" viewBox="0 0 464.15 129.77"><defs><linearGradient id="uuid-abbcbb19-bcef-43b4-8218-2be4a9ce2964" x1="62.29" y1="31.78" x2="71.85" y2="48.43" gradientUnits="userSpaceOnUse"><stop offset="0" stop-color="#99cdee"/><stop offset="1" stop-color="#4398c6"/></linearGradient><linearGradient id="uuid-c1c36171-ad03-427f-8ccc-7aabdc200d07" x1="56.4" y1="26.88" x2="55.91" y2="45.57" gradientUnits="userSpaceOnUse"><stop offset="0" stop-color="#c6e2f6"/><stop offset="1" stop-color="#d5f8ff"/></linearGradient><linearGradient id="uuid-67f7bd93-d484-467c-82c9-32227125855d" x1="48.74" y1="41.18" x2="52.81" y2="55.91" gradientUnits="userSpaceOnUse"><stop offset="0" stop-color="#bfe7fb"/><stop offset="1" stop-color="#81e3fc"/></linearGradient><linearGradient id="uuid-715bb20c-b1aa-4162-beab-a1ad0aec9e3a" x1="73.63" y1="29.05" x2="74.88" y2="59.18" gradientUnits="userSpaceOnUse"><stop offset="0" stop-color="#99c8e7"/><stop offset="1" stop-color="#6eadcd"/></linearGradient><linearGradient id="uuid-cb22edf2-5e0f-4ee6-96f9-a70ffb298c0c" x1="67.31" y1="92.34" x2="87.39" y2="104.8" gradientUnits="userSpaceOnUse"><stop offset="0" stop-color="#cd7452"/><stop offset="1" stop-color="#b65932"/></linearGradient><linearGradient id="uuid-1517c64b-650b-4671-bc7d-e6d3122a7d9a" x1="84.78" y1="94.34" x2="101.57" y2="102.35" gradientUnits="userSpaceOnUse"><stop offset="0" stop-color="#b85b47"/><stop offset="1" stop-color="#a04229"/></linearGradient><linearGradient id="uuid-d7973039-49fc-4797-81ab-06c4c24a0e6b" x1="41.78" y1="74.92" x2="97" y2="79.25" gradientUnits="userSpaceOnUse"><stop offset="0" stop-color="#a2432e"/><stop offset=".36" stop-color="#81221f"/><stop offset="1" stop-color="#5b0c10"/></linearGradient><linearGradient id="uuid-c819c234-2f41-4669-a5d0-5a329d22a3a7" x1="39.59" y1="85.42" x2="56.28" y2="107.59" gradientUnits="userSpaceOnUse"><stop offset="0" stop-color="#eeaf7e"/><stop offset="1" stop-color="#d58650"/></linearGradient><linearGradient id="uuid-433eaf7b-baba-40d2-987b-d70ad083e4f9" x1="54.57" y1="94.88" x2="73.42" y2="100.26" gradientUnits="userSpaceOnUse"><stop offset="0" stop-color="#de9164"/><stop offset="1" stop-color="#c26b42"/></linearGradient></defs><path d="M157.61,52.9c2.11-4.34,5.82-6.33,10.12-6.33,2.66,0,4.61.66,5.31.98l-.62,5.74c-1.05-.39-2.5-.94-4.92-.94-5,0-9.88,3.28-9.88,11.68v20.82h-6.25v-37.5h6.25v5.55Z" style="fill:#db760e;"/><path d="M198.16,46.58c5.08,0,9.41,1.48,11.25,2.5l-.66,5.59c-2.5-1.21-6.25-2.27-10.59-2.27-8.79,0-14.8,5.51-14.8,13.59s6.05,13.83,14.88,13.83c3.79,0,8.05-.98,10.82-2.38l1.02,5.66c-3.32,1.48-7.7,2.54-11.84,2.54-12.58,0-21.17-7.97-21.17-19.65s8.55-19.41,21.09-19.41Z" style="fill:#db760e;"/><path d="M235.81,46.58c11.41,0,19.92,8.55,19.92,19.53s-8.52,19.53-19.92,19.53-19.92-8.55-19.92-19.53,8.52-19.53,19.92-19.53ZM235.81,79.86c7.89,0,13.71-6.02,13.71-13.75s-5.82-13.75-13.71-13.75-13.71,6.02-13.71,13.75,5.82,13.75,13.71,13.75Z" style="fill:#db760e;"/><path d="M300.38,62.05v22.81h-6.17v-21.29c0-7.3-3.83-11.13-10.62-11.13-6.41,0-11.6,4.41-11.6,11.25v21.17h-6.21v-37.5h6.25v5.62c2.11-3.48,6.56-6.41,12.54-6.41,9.88,0,15.82,5.82,15.82,15.47Z" style="fill:#db760e;"/><g id="uuid-4fb4818b-89a6-4afa-8551-16affcabe44a"><path d="M100.13,120.84c0-.43.01-.87,0-1.31.87.24,4.2-.26,4.78,0,.28.13.1.99.15,1.26-1.64.12-3.29.01-4.93.05Z" style="fill:#a59f98;"/><path d="M39.21,119.64v1.21c-1.66-.04-3.32.03-4.98,0-.06-.04-.09-1.07-.05-1.16.18-.41,4.38.1,5.03-.05Z" style="fill:#a59f98;"/><path d="M33.88,21.42c-.28,3.1.01,6.45,0,9.45-.03,5.95,0,11.73,0,17.79,0,4.95-.08,9.92-.1,14.88,0,1.13.26,8.63,0,9-.09.13-1.35,0-1.61.05-1.15-16.46.8-34.04-.1-50.62.08-.12.18-.42.2-.55h1.61Z" style="fill:#fee3ae;"/><path d="M107.16,21.82c.18,7.32,0,14.69,0,22.02l-1.51.05,1.51.15c0,7.44.05,14.88,0,22.32l-.9.05.9.05c-.01,1.6.05,3.22,0,4.83-.06,1.56-.29,1.19-1.71,1.31-.03,0-.07,0-.1,0,.09-1.1.17-2.26.2-3.37.36-15.19-.48-30.47,0-45.64.05-1.62-.19-1.95,1.61-1.76Z" style="fill:#c95a4d;"/><path d="M101.64,17.2c-.4,2.49,1.08,1.1,1.66,1.51.18.13-.13,1.36.2,1.51.22.1,1.5.04,1.66-.2.12-.02.09.1.1.1,0,.48,0,.97,0,1.46,0,.08.2,0,.2.15,0,.01-.2-.03-.2.05-.01,3,0,6,0,9h-2.51c0-1.57-.1-3.16-.1-4.72,0-.36.21-.82.1-1.21.28-.01.54-.01.8-.15-.09-.61.3-1.02-.4-1.16.5-.4-1.2-.12-1.26-.2-.09.05-.03.15-.05.2-.09.24.06.9,0,1.21-.01,0-.19.2-.2.2-.6.05-1.22-.1-1.81.1,0-.47.01-.94,0-1.41,0-.3.2-1.6-.05-1.71h-5.73l-.05-3.32c1.16-.15,1.32-.06,1.41-1.31,2.07,0,4.15-.13,6.23-.1Z" style="fill:#d16b4f;"/><path d="M36.49,63.44s0,.07,0,.1c0,.1.1.11.1.2,0,.51-.26,3.55-.1,3.77.05.07,1.18.09,1.41.05,0,.13.1.09.1.1.02.32-.18,1.61.05,1.71.52.09,1.06-.08,1.56-.1.03,0,.07,0,.1,0l.25,1.71h1.71c.16-.09.12-.18.15-.3.27.32,1.03.22,1.51.2.3-.04.2.27.2.45.01.42.04,2.84-.25,2.97h-7.29s0-.07,0-.1c-.04-.37.14-1.39-.15-1.61l-1.91.1c-.09.06.14,1.27.15,1.51-.29-.06-1.75.08-1.86,0s-.03-1.36-.05-1.61c.26-.04,1.52.08,1.61-.05.26-.37,0-7.87,0-9l2.71-.1Z" style="fill:#f1ae72;"/><path d="M67.35,15.69c.07.52-.18,1.23.2,1.61-.01,0-.09.22-.15.2-.12-.03-.17-.3-.2-.3-.65,0-1.31,0-1.96,0-.25,0-.38.1-.4.1-.08,0-.11-.1-.3-.1-3.79,0-7.57.09-11.36.1-.1,0-.2,0-.3,0-.43,0-.87,0-1.31,0-.16,0-.34,0-.5,0-2.54,0-5.1,0-7.64,0-.97,0-1.95,0-2.92,0-.4-.33-.12-1.08-.2-1.61,9-.19,18.04,0,27.04,0Z" style="fill:#fee3ae;"/><path d="M93.89,15.69v1.61c-2.14,0-4.29,0-6.43,0-.1,0-.2,0-.3,0-1.71,0-3.43,0-5.13,0-.1,0-.2,0-.3,0-4.72,0-9.45,0-14.17,0-.38-.38-.13-1.09-.2-1.61,8.84,0,17.7-.03,26.54,0Z" style="fill:#fee3ae;"/><path d="M105.46,21.72h1.71s0,.07,0,.1c-1.8-.19-1.56.14-1.61,1.76-.48,15.17.36,30.45,0,45.64-.03,1.11-.11,2.26-.2,3.37-.03,0-.07,0-.1,0-.18-.5.26-2.95-.25-3.12l-3.87-.05,4.12-.3-.1-5.33-2.31.1.1,4.22c-.19.19-.29-.39-.3-.45-.2-1.03.07-3.1.1-4.22.33-.05,2.32.08,2.41-.05.18-.25.09-5.46.1-6.23,0-.12,0-.27,0-.4.03-2.65.17-5.3-.1-7.94l-2.31.15c0-.1,0-.2,0-.3l2.41-.15c.12-1.59-.12-3.2-.1-4.78,0-.34-.1-.2-.1-.3,0-.01.2.03.2-.05.02-2.61-.01-5.23,0-7.84l-2.51.05c0-.1,0-.2,0-.3l2.61-.15c.04-1.31-.09-2.61-.1-3.92,0-.16,0-.26,0-.45,0-3-.01-6,0-9,0-.08.2-.04.2-.05Z" style="fill:#ac3432;"/><path d="M103.24,17.2c-.53-.01-1.07,0-1.61,0-2.08-.03-4.16.09-6.23.1-.5,0-1.01,0-1.51,0v-1.61c3.06.01,6.13,0,9.2,0l.15,1.51Z" style="fill:#fdcb99;"/><path d="M105.36,72.59s.07,0,.1,0l-.05,1.51c.28-.06,1.24.09,1.41,0,.34-.18-.11-1.32.35-1.31-.2,2.79-.65.93-1.96,1.51-.34.15-.01,1.58-.2,1.71-.17.12-1.51-.19-1.66.15-.08.17.04,1.63-.15,1.76-.24.17-3.01-.23-3.17.15v2.46c-.03-.71-.19-1.44-.1-2.16-.07-.1-1-.04-1.21-.05v-2.31c.58,0,4.19.13,4.37,0,.08-.06.11-1.44.05-1.71.03,0,.07,0,.1,0,.55-.01,1.1,0,1.66,0l.05-1.61c.18-.02.22-.09.3-.1.03,0,.07,0,.1,0Z" style="fill:#6c1017;"/><path d="M36.29,76.01c.9.04,1.82-.01,2.71,0,.35.52.19,1.37.2,2.01-.53-.04-3.04,0-3.17-.1s-.06-1.62-.15-1.91c.18.01.27,0,.4,0Z" style="fill:#8c2926;"/><path d="M103.24,17.2s.07,0,.1,0c-.55,1.85.83.94,1.91,1.31,0,.32.04,1.29-.1,1.51-.16.25-1.44.3-1.66.2-.33-.15-.02-1.38-.2-1.51-.58-.41-2.06.98-1.66-1.51.53,0,1.07-.01,1.61,0Z" style="fill:#8c2926;"/><path d="M40.31,15.69c.08.52-.2,1.28.2,1.61h-2.61c-.25,0-.19-.1-.2-.1v-1.41c.89-.07,1.73-.08,2.61-.1Z" style="fill:#fee3ae;"/><path d="M35.99,74.2l-1.81.2s-.09.05-.1-.2c-.01-.24-.24-1.45-.15-1.51l1.91-.1c.29.22.11,1.24.15,1.61Z" style="fill:#d16b4f;"/><path d="M35.99,74.2s0,.07,0,.1c.05.6.11,1.14.3,1.71-.14,0-.22.01-.4,0-.58-.04-1.17-.18-1.76-.1-.11-.06.07-1.3.05-1.51l1.81-.2Z" style="fill:#9c3f2a;"/><path d="M107.16,21.72h-1.71c0-.15-.2-.07-.2-.15,0-.49,0-.97,0-1.46,1.86.46,1.83-1.11,1.91,1.61Z" style="fill:#fdcb99;"/><path d="M107.16,72.79c-.46,0,0,1.13-.35,1.31-.17.09-1.12-.06-1.41,0l.05-1.51c1.42-.12,1.65.25,1.71-1.31-.01.5.04,1.01,0,1.51Z" style="fill:#8c2926;"/><path d="M105.25,18.5c-1.08-.36-2.46.54-1.91-1.31.62.02,1.24-.01,1.86,0,.25.11.05,1.06.05,1.31Z" style="fill:#f1ae72;"/><path d="M107.16,43.84c0,.07,0,.13,0,.2l-1.51-.15,1.51-.05Z" style="fill:#fdcb99;"/><path d="M107.16,66.36s0,.07,0,.1l-.9-.05.9-.05Z" style="fill:#ac3432;"/><path d="M40.51,17.3c.97,0,1.95,0,2.92,0l.1,4.27c-.2.54-1.15.04-1.61.35-.72,0-1.44,0-2.16,0-.12.09-.01,1.08-.05,1.31-.56.46-1.41.05-1.96.1-.08,0-.04.2-.05.2-.29.04-.65-.03-.96,0-.11.07,0,.32-.05.4-.41.8-.01.66,0,1.06.05,1.92-.08,3.86-.1,5.78l-2.71.1c.01-3-.28-6.35,0-9.45.03-.38.15-.83.2-1.21.45-.01,1.92.02,2.26-.2s-.16-.93-.25-1.11c.21-.46,1.56-.06,1.76-.2.13-.09,0-1.17.05-1.41h2.61Z" style="fill:#fee3ae;"/><path d="M36.59,30.77s0,.07,0,.1c0,.07,0,.14,0,.2-.05,4.12-.1,8.24-.1,12.37,0,.1,0,.2,0,.3,0,1.64-.08,3.3.1,4.93h-2.71c0-6.06-.03-11.84,0-17.79l2.71-.1Z" style="fill:#fed48f;"/><path d="M36.49,48.66c.13,4.92.04,9.85,0,14.78l-2.71.1c.02-4.96.09-9.93.1-14.88h2.61Z" style="fill:#f1ae72;"/><path d="M94,18.6l.05,3.32h5.73c.25.11.04,1.41.05,1.71-.44.27-1,.02-1.41,0-6.52-.26-13.62,0-20.21,0-1.27,0-2.55,0-3.82,0,.1-.62-.27-1.41.3-1.71.33-.17,6.41-.1,7.34-.1.02,0,.15.1.4.1,1.71,0,3.43-.09,5.13-.1.76,0,5.93.28,6.18.1l.05-3.32c.22-.03.19,0,.2,0Z" style="fill:#ac3432;"/><path d="M93.89,17.3c.5,0,1.01,0,1.51,0-.09,1.24-.24,1.16-1.41,1.31,0,0,.02-.03-.2,0-.03,0-.3-.13-.55-.1-1.89.25-3.8.6-5.68.9-.02-.69-.13-1.41-.1-2.11,2.14,0,4.29,0,6.43,0Z" style="fill:#ea9667;"/><path d="M105.25,30.77c0,.19,0,.3,0,.45,0,1.31.14,2.61.1,3.92l-2.61.15c0-1.44,0-2.89,0-4.32.63-.12,1.73.25,2.21-.2h.3Z" style="fill:#d16b4f;"/><path d="M99.83,23.63c.01.47,0,.94,0,1.41,0,.28.1.56.1.9,0,.31-.1.8-.1,1.21-.4-.1.03-.8-.25-.9-.23-.08-.86.06-1.16,0,.03-.87-.02-1.75,0-2.61.4.02.97.27,1.41,0Z" style="fill:#520908;"/><path d="M103.14,23.53c.7.14.31.55.4,1.16-.26.14-.52.14-.8.15-.14,0-.58-.13-.9-.1.06-.31-.09-.96,0-1.21.39.05.94-.07,1.31,0Z" style="fill:#fefdfe;"/><path d="M104.95,30.77c-.49.45-1.58.08-2.21.2v-.2h2.21Z" style="fill:#c95a4d;"/><path d="M103.14,23.53c-.36-.07-.91.05-1.31,0,.02-.05-.04-.16.05-.2.06.08,1.76-.2,1.26.2Z" style="fill:#bd4835;"/><path d="M48.56,69.07c1.44,0,2.88,0,4.32,0,.03.53.02,1.07,0,1.61-.42,0-1.01.2-1.41.2-.1,0-.2,0-.3,0-2.44,0-4.89-.15-7.34-.1-.22,0-.48.1-.5.1-.47.01-1.24.12-1.51-.2.08-.3.01-1.17-.1-1.51.13,0,.09-.1.1-.1,2.24-.06,4.5.01,6.74,0Z" style="fill:#fee3ae;"/><path d="M37.7,48.66c.03,5.04,0,10.14.1,15.18-.15-.06-.08-.23-.3-.3-.33-.1-.67.05-1.01,0,0-.03,0-.07,0-.1.04-4.93.13-9.86,0-14.78h1.21Z" style="fill:#ee7f59;"/><path d="M43.83,70.78c-.07,1.11.09,2.32,0,3.42-.34.08-.52.57-.3.9-.16.42-.17.46-.2.9-.84,0-1.68,0-2.51,0-.6,0-1.21,0-1.81,0-.89-.01-1.82.04-2.71,0-.19-.57-.25-1.11-.3-1.71h7.29c.29-.13.26-2.54.25-2.97,0-.18.1-.5-.2-.45.03,0,.28-.1.5-.1Z" style="fill:#d16b4f;"/><path d="M37.8,63.84c.02.79.07,1.62.1,2.41.02.43-.02.87,0,1.31-.23.04-1.35.02-1.41-.05-.16-.22.1-3.26.1-3.77.28-.14.92.23.9-.2.22.07.15.24.3.3Z" style="fill:#d16b4f;"/><path d="M41.72,69.17c.11.34.18,1.2.1,1.51-.03.12,0,.21-.15.3h-1.71l-.25-1.71c.67-.03,1.33-.08,2.01-.1Z" style="fill:#ac3432;"/><path d="M39.61,67.76c0,.5.07,1.02,0,1.51-.5.02-1.04.19-1.56.1-.23-.1-.03-1.39-.05-1.71.53-.09,1.13-.23,1.61.1Z" style="fill:#bd4835;"/><path d="M39.61,67.26c0,.15,0,.34,0,.5-.48-.33-1.07-.19-1.61-.1,0,0-.09.03-.1-.1-.02-.43.02-.87,0-1.31l1.51-.2c0,.07.18.75.2,1.21Z" style="fill:#6f1e12;"/><path d="M37.5,63.54c.02.43-.62.06-.9.2,0-.1-.1-.11-.1-.2.34.05.67-.1,1.01,0Z" style="fill:#c95a4d;"/><path d="M64.54,17.2v4.72c-3.82.02-7.65-.1-11.46-.1l.1-4.52c3.79-.01,7.57-.1,11.36-.1Z" style="fill:#fdcb99;"/><path d="M51.07,17.3c.31.86-.08,2.15.1,2.97.03.12.02.44.25.25.2-.16-.12-2.78.15-3.22.43,0,.87,0,1.31,0l.1,4.52c-3.17,0-6.37.21-9.55.1-.5,0-1.01,0-1.51,0,.45-.31,1.41.19,1.61-.35l-.1-4.27c2.54,0,5.1,0,7.64,0Z" style="fill:#fed48f;"/><path d="M65.24,17.2c.21.53-.03,4.2.1,4.37.31.42,1.51-.16,1.81.35-.8,0-1.61,0-2.41,0l.1-4.62s.15-.1.4-.1Z" style="fill:#fed48f;"/><path d="M64.84,17.3l-.1,4.62c-.07,0-.13,0-.2,0v-4.72c.19,0,.22.1.3.1Z" style="fill:#f1ae72;"/><path d="M53.18,17.3l-.1,4.52h-.1l-.1-4.52c.1,0,.2,0,.3,0Z" style="fill:#f59e5d;"/><path d="M51.57,17.3c-.27.44.05,3.05-.15,3.22-.23.19-.22-.13-.25-.25-.18-.81.21-2.1-.1-2.97.17,0,.34,0,.5,0Z" style="fill:#f1ae72;"/><path d="M87.16,17.3l-.05,2.11c-1.62.09-3.19.54-4.78.8-.09.02-.11-.17-.3,0v-2.92c1.69,0,3.42,0,5.13,0Z" style="fill:#f1ae72;"/><path d="M87.46,17.3c-.03.71.08,1.42.1,2.11.02.8-.02,1.61,0,2.41-1.7,0-3.42.1-5.13.1l-.1-1.71c1.59-.27,3.16-.71,4.78-.8l.05-2.11c.1,0,.2,0,.3,0Z" style="fill:#ee7f59;"/><path d="M82.03,17.3v4.52c-.93,0-7.01-.07-7.34.1l-.5-.2c.1-.15.1-.22.1-.4l7.39-1.01.05-3.02c.1,0,.2,0,.3,0Z" style="fill:#d7844f;"/><path d="M40.81,76.01c-.17.61.27,1.51-.2,2.01-.46-.03-.95.04-1.41,0,0-.64.14-1.49-.2-2.01.6,0,1.21,0,1.81,0Z" style="fill:#bd4835;"/><path d="M105.25,72.59c-.08,0-.12.09-.3.1-.95.08-1.44-.7-1.61.6-.41,0-.07.68-.25.8-.24.17-5.11-.13-5.83,0,.36-.3.3-2.28-.2-2.11l-.05,1.96c-1.65.98-.59-2.41-.9-3.17.62.17,1.3-.15,1.81-.2.39-.04,1.36.09,1.61,0,.05-.02.16.04.2-.05,0-.41.05-.75-.1-1.16-.02-.04,0-.14,0-.2.07-.04.06-.03.1-.1.19-.33.08-1,.1-1.41.46.28,1.1,0,1.51,0,.01,0-.05.1.2.1.36,0,.78.07,1.11-.1.01.06.11.64.3.45l-.1-4.22,2.31-.1.1,5.33-4.12.3,3.87.05c.51.16.08,2.61.25,3.12Z" style="fill:#c95a4d;"/><path d="M102.74,63.44c.01-.52-.32-2.64.25-2.92.14-.07.64.09.75-.05.04-.05-.19-.73,0-1.26.04-.12.26-.31.4-.35l-1.41-.15c-.23-3.04.11-6.66.1-9.75l2.31-.15c.27,2.65.13,5.29.1,7.94,0,.14,0,.28,0,.4-.01.77.08,5.98-.1,6.23-.1.13-2.08,0-2.41.05Z" style="fill:#c95a4d;"/><path d="M105.05,43.44h-2.21c0-2.2-.1-4.43-.1-6.63,0-.4,0-.81,0-1.21l2.51-.05c-.01,2.61.02,5.23,0,7.84,0,.08-.2.04-.2.05Z" style="fill:#d16b4f;"/><path d="M105.15,43.74c-.01,1.57.22,3.19.1,4.78l-2.41.15c0-1.6-.1-3.22-.1-4.83l2.41-.1Z" style="fill:#c95a4d;"/><path d="M105.05,43.44c0,.11.1-.04.1.3l-2.41.1c0-.26.1-.38.1-.4h2.21Z" style="fill:#ac3432;"/><path d="M96.01,70.68l.1.1c.31.76-.74,4.15.9,3.17l.05-1.96c.5-.17.57,1.81.2,2.11.72-.13,5.59.17,5.83,0,.18-.12-.16-.81.25-.8-.04.33.1.69-.1,1.01-.03,0-.07,0-.1,0-6.93.21-14.07-.1-21.01-.1v-3.42c1.04-.01,2.1.11,3.12.1l.25,1.61-.05-1.61c1.06,0,2.14-.1,3.22-.1l.05,1.81.15-1.71c2.36,0,4.78-.13,7.14-.2Z" style="fill:#c95a4d;"/><path d="M82.13,74.2c6.94,0,14.08.31,21.01.1.06.26.03,1.65-.05,1.71-.18.13-3.8,0-4.37,0-9.28.1-18.58,0-27.85,0l8.29-.1-.15-1.71c1.04,0,2.08,0,3.12,0Z" style="fill:#8c2926;"/><path d="M104.95,72.69l-.05,1.61c-.56,0-1.11-.01-1.66,0,.2-.31.06-.68.1-1.01.17-1.31.66-.52,1.61-.6Z" style="fill:#ac3432;"/><path d="M35.79,18.4c.04.76.28.47.3.5.09.18.6.89.25,1.11s-1.81.19-2.26.2c0-.03,0-.07,0-.1.22-1.69-.37-1.85,1.71-1.71Z" style="fill:#ea9667;"/><path d="M37.7,17.2s-.05.1.2.1c-.04.24.08,1.32-.05,1.41-.2.14-1.55-.26-1.76.2-.02-.03-.27.26-.3-.5-.07-1.59.68-1.2,1.91-1.21Z" style="fill:#d7844f;"/><path d="M41.92,21.92c.5,0,1.01,0,1.51,0,1.24.01,2.52.2,3.77.1l-.1,1.41-7.39-.1s0-.07,0-.1c.04-.23-.07-1.22.05-1.31.72,0,1.44,0,2.16,0Z" style="fill:#ac3432;"/><path d="M36.69,23.93c-.2,1.04.46.72,1.21.8,0,.03,0,.07,0,.1-.15,3.45-.1,6.9-.1,10.35-.07-1.38-.28-2.83-.3-4.22l-.9-.1s0-.07,0-.1c.02-1.92.15-3.86.1-5.78-.01-.4-.41-.26,0-1.06Z" style="fill:#f1ae72;"/><path d="M39.71,23.33c-.01.1,0,.2,0,.3,0,.11-.19.61-.2,1.11l-1.61.1s0-.07,0-.1c.02-.35.2-1.14-.2-1.21.01,0-.03-.19.05-.2.55-.05,1.4.36,1.96-.1,0,.03,0,.07,0,.1Z" style="fill:#d7844f;"/><path d="M37.7,23.53c.4.06.22.86.2,1.21-.74-.09-1.4.23-1.21-.8.04-.08-.06-.33.05-.4.3-.03.67.04.96,0Z" style="fill:#fefdfe;"/><path d="M37.8,35.19c.07,1.41.08,2.9.1,4.32.04,3.03-.22,6.12-.2,9.15h-1.11c-.18-1.63-.1-3.29-.1-4.93,1.4.13,1.34-.43,0-.3,0-4.13.05-8.24.1-12.37l.9-.1c.02,1.4.23,2.84.3,4.22Z" style="fill:#ea9667;"/><path d="M36.49,43.74c0-.1,0-.2,0-.3,1.34-.13,1.4.43,0,.3Z" style="fill:#eb643d;"/><path d="M37.5,30.97l-.9.1c0-.06,0-.13,0-.2l.9.1Z" style="fill:#ee7f59;"/><path d="M74.69,21.92c-.57.3-.2,1.09-.3,1.71-2.97,0-5.97,0-8.95,0-6.33,0-12.68-.04-19,0l-2.41.1c-.84,0-1.8.13-2.61.1-.16,0-.07-.2-.15-.2-.52-.03-1.04.02-1.56,0,0-.1-.01-.2,0-.3l7.39.1.1-1.41c-1.25.1-2.53-.09-3.77-.1,3.18.11,6.38-.1,9.55-.1h.1c3.81,0,7.64.12,11.46.1.07,0,.13,0,.2,0,.8,0,1.61,0,2.41,0,2.28-.02,4.57-.1,6.84,0,.28.06.16-.14.2-.2l.5.2Z" style="fill:#bd4835;"/><path d="M93.79,18.6l-.05,3.32c-.25.18-5.42-.1-6.18-.1-.02-.8.02-1.61,0-2.41,1.88-.3,3.79-.66,5.68-.9.26-.03.52.1.55.1Z" style="fill:#ee7f59;"/><path d="M82.33,20.21l.1,1.71c-.26,0-.38-.1-.4-.1v-1.61c.19-.17.21.02.3,0Z" style="fill:#ea9667;"/><path d="M102.64,26.04c0,1.56.1,3.16.1,4.72v.2c0,1.44,0,2.88,0,4.32,0,.1,0,.2,0,.3,0,.4,0,.81,0,1.21l-.2-1.56-1.11.1.1,32.42c-.25,0-.19-.1-.2-.1.11-10.82-.11-21.67-.1-32.47,0-2.59-.14-6.22.1-8.7.03-.26.07-.26.2-.45.36.02.74-.02,1.11,0Z" style="fill:#f1ae72;"/><path d="M101.64,24.94c-.06.31.18,1.03-.2,1.01-.5-.03-1.01.02-1.51,0,0-.35-.1-.62-.1-.9.59-.2,1.21-.05,1.81-.1Z" style="fill:#bd4835;"/><path d="M102.74,24.84c.11.39-.1.85-.1,1.21-.37-.02-.74.02-1.11,0-.13,0-.09-.1-.1-.1.38.02.14-.7.2-1.01.01,0,.19-.2.2-.2.32-.03.77.11.9.1Z" style="fill:#ea9667;"/><path d="M102.74,36.8c0,2.21.09,4.43.1,6.63,0,.02-.1.15-.1.4,0,1.61.1,3.23.1,4.83,0,.1,0,.2,0,.3.01,3.09-.33,6.71-.1,9.75.06.82.38.15,1.01.5-.19.53.04,1.21,0,1.26-.12.14-.62-.02-.75.05-.57.27-.24,2.4-.25,2.92-.03,1.13-.3,3.19-.1,4.22-.33.17-.74.1-1.11.1l-.1-32.42,1.11-.1.2,1.56Z" style="fill:#f1ae72;"/><path d="M101.23,35.19c0,10.81.21,21.65.1,32.47-.41,0-1.05.28-1.51,0,.06-1.4-.01-2.82,0-4.22,0-.07,0-.13,0-.2.02-2.71,0-5.43,0-8.14,0-.47,0-.94,0-1.41,0-1.1,0-2.21,0-3.32,0-.47,0-.94,0-1.41,0-1.61,0-3.22,0-4.83,0-.1,0-.2,0-.3,0-1.41,0-2.82,0-4.22,0-.2,0-.4,0-.6,0-1.24,0-2.48,0-3.72.47-.02.93-.17,1.41-.1Z" style="fill:#ea9667;"/><path d="M101.43,25.94s-.03.09.1.1c-.13.19-.18.19-.2.45-.24,2.48-.1,6.11-.1,8.7-.48-.07-.94.08-1.41.1,0-.8,0-1.61,0-2.41,0-.7,0-1.41,0-2.11,0-.64,0-1.27,0-1.91,0-.17,0-.34,0-.5,0-.4,0-.81,0-1.21s.1-.9.1-1.21c.5.02,1.01-.03,1.51,0Z" style="fill:#f1ae72;"/><path d="M99.83,27.15c0,.4,0,.81,0,1.21l-1.51-.1c0-.68.08-1.34.1-2.01.29.06.92-.08,1.16,0,.28.1-.15.8.25.9Z" style="fill:#7a3a34;"/><path d="M52.88,70.68c-.06,1.21-.13,2.4-.1,3.62-2.98.03-5.97-.02-8.95,0,0-.03,0-.07,0-.1.09-1.1-.07-2.31,0-3.42,2.45-.05,4.9.1,7.34.1l.15,1.81.15-1.81c.4,0,.99-.2,1.41-.2Z" style="fill:#f1ae72;"/><path d="M67.96,69.07v.5c-.81.02-1.66.21-2.46,0-.25.09-.13.95-.15,1.21-.1,1.13-.11,2.28-.1,3.42-.12-.04-.29.06-.4-.15v-3.12c-.09-.16-.18-.12-.3-.15v-.1c.64.16.54-1.37,0-1.01l-7.29-.1.05,1.11c-1.4.24-2.82,0-4.22,0-.07,0-.13,0-.2,0,.02-.53.03-1.08,0-1.61,5.02-.02,10.05,0,15.08,0Z" style="fill:#fdcb99;"/><path d="M51.47,70.88l-.15,1.81-.15-1.81c.1,0,.2,0,.3,0Z" style="fill:#d16b4f;"/><path d="M39.51,39.62c-.03,8.76-.29,17.71-.1,26.44l-1.51.2c-.03-.79-.08-1.63-.1-2.41-.11-5.04-.07-10.14-.1-15.18-.02-3.03.24-6.11.2-9.15.54.12,1.2-.26,1.61.1Z" style="fill:#ac3432;"/><path d="M52.78,74.3c.02.68-.08,1.04.2,1.71-3.22,0-6.44.02-9.65,0,.03-.45.04-.49.2-.9.06-.16.21.07.3-.8,2.98-.02,5.97.03,8.95,0Z" style="fill:#c95a4d;"/><path d="M43.83,74.3c-.09.88-.24.64-.3.8-.21-.34-.04-.82.3-.9,0,.03,0,.07,0,.1Z" style="fill:#ac3432;"/><path d="M65.24,74.2c1.06.37,6.24.1,7.74.1,1.84,0,4.07-.1,5.63-.1.13,0,.27,0,.4,0l.15,1.71-8.29.1c-1.9,0-3.82,0-5.73,0-.77-.55-.56-.91-.6-1.71-.06-1.15,0-2.36,0-3.52.12.03.21,0,.3.15v3.12c.11.21.29.11.4.15Z" style="fill:#ac3432;"/><path d="M64.54,74.3c.04.8-.17,1.16.6,1.71-4.05,0-8.12,0-12.16,0-.28-.67-.18-1.03-.2-1.71.23,0,.33-.1.4-.1.55,0,3.84.27,4.07.1l.15-3.52h.1l.15,3.52h6.89Z" style="fill:#bd4835;"/><path d="M67.56,17.3c4.72,0,9.45,0,14.17,0l-.05,3.02-7.39,1.01c.01-1.53-.73-.2-.3.6-2.27-.1-4.56-.02-6.84,0-.3-.51-1.5.07-1.81-.35-.13-.18.11-3.84-.1-4.37.65,0,1.31,0,1.96,0,.03,0,.09.27.2.3.06.02.14-.2.15-.2Z" style="fill:#fdcb99;"/><path d="M67.61,18.7h2.71l.05,1.76c-.45-.04.2-1.36-.25-1.56-.69-.09-1.66.12-2.31,0-.14-.03-.35.05-.2-.2Z" style="fill:#ea9667;"/><path d="M74.29,21.32c0,.18,0,.25-.1.4-.04.06.07.26-.2.2-.43-.8.32-2.13.3-.6Z" style="fill:#fed48f;"/><path d="M99.83,67.66c-.02.4.09,1.08-.1,1.41-.25-.22.02-1.28-.15-1.41-.06-.04-1.13.01-1.36,0,.12-.66-.02-1.37,0-2.01,0-.11,0-.2,0-.3,0-.22.2-.89.2-1.11.82-.33,1.33.37,1.41-.8-.01,1.4.06,2.82,0,4.22Z" style="fill:#532323;"/><path d="M97.82,69.07s.08.16.1.2c.11.22-.08,1.01,0,1.31-.51.05-1.19.37-1.81.2l-.1-.1-.1-1.61c.43.01,1.62-.09,1.91,0Z" style="fill:#f1ae72;"/><path d="M98.22,67.66c.22.01,1.3-.04,1.36,0,.18.12-.1,1.19.15,1.41-.04.07-.03.06-.1.1-.41.24-1.23.03-1.71.1-.02-.04-.09-.2-.1-.2l.2-1.41c.07,0,.13,0,.2,0Z" style="fill:#bd4835;"/><path d="M99.63,69.37l-.1,1.21c-.25.09-1.22-.04-1.61,0-.08-.29.11-1.08,0-1.31.48-.07,1.3.14,1.71-.1,0,.06-.02.16,0,.2Z" style="fill:#c95a4d;"/><path d="M99.52,70.58l.1-1.21c.15.41.1.74.1,1.16-.05.09-.15.03-.2.05Z" style="fill:#ac3432;"/><path d="M103.75,59.22c-.62-.35-.94.31-1.01-.5l1.41.15c-.15.04-.36.23-.4.35Z" style="fill:#c95a4d;"/><path d="M96.01,70.68c-2.36.07-4.78.21-7.14.2-.01,0,.05-.1-.2-.1-1.07,0-2.16.09-3.22.1-.07,0-.13,0-.2,0-1.02,0-2.08-.11-3.12-.1-1.27.02-2.55-.01-3.82,0l-.2.15v3.22c-.15.21-1.45-.06-1.71-.05l.1-3.17c-.17-.38-2.78-.04-3.22-.05-.07,0-.13,0-.2,0-2.58-.04-5.16-.18-7.74-.1.02-.25-.1-1.12.15-1.21.81.21,1.65.02,2.46,0,6.78-.19,13.66.29,20.46.1.25-.07.07-.86.5,0,.96-.21,6.31.25,6.74,0,.05-.03.1-.48.15-.6.03,0,.07,0,.1,0l.1,1.61Z" style="fill:#ea9667;"/><path d="M82.13,70.78v3.42c-1.04,0-2.08,0-3.12,0-.13,0-.27,0-.4,0l-.3-3.42c1.27-.01,2.55.02,3.82,0Z" style="fill:#d16b4f;"/><path d="M85.45,70.88l.05,1.61-.25-1.61c.07,0,.13,0,.2,0Z" style="fill:#ac3432;"/><path d="M88.87,70.88l-.15,1.71-.05-1.81c.25,0,.19.1.2.1Z" style="fill:#8c2926;"/><path d="M39.71,26.35c-.02,1.38-.09,2.74-.1,4.12-.03,3.05-.09,6.1-.1,9.15-.41-.36-1.07.02-1.61-.1-.02-1.42-.03-2.91-.1-4.32,0-3.45-.05-6.9.1-10.35l1.61-.1c-.01.44.21,1.17.2,1.61Z" style="fill:#ac3432;"/><path d="M41.42,23.83c-.2.41.08.62.1,1.11.01.42,0,.84,0,1.26-.09.13-.65.04-.8.05-.34.02-.67,0-1.01.1,0-.44-.21-1.17-.2-1.61.01-.5.19-.99.2-1.11.52.02,1.04-.03,1.56,0,.08,0,0,.19.15.2Z" style="fill:#520908;"/><path d="M99.83,28.36c0,.17,0,.34,0,.5l-1.41.1s-.1-.15-.1-.4c0-.07,0-.13,0-.2,0-.03,0-.07,0-.1l1.51.1Z" style="fill:#b68474;"/><path d="M99.83,63.24l-1.51.1c.03-1.28.09-2.54.1-3.82,1.23.08,1.4.22,1.31-1.16l-1.31-.05c0-1.04,0-2.08,0-3.12l1.41-.1c0,2.71.02,5.43,0,8.14Z" style="fill:#532323;"/><path d="M99.83,44.14c0,1.61,0,3.22,0,4.83h-1.41c0-1.64-.01-3.29,0-4.93l1.41.1Z" style="fill:#7a3a34;"/><path d="M99.83,39.62c0,1.41,0,2.82,0,4.22l-1.41.1c.01-1.32-.16-3.18,0-4.42l1.41.1Z" style="fill:#7a3a34;"/><path d="M99.83,35.29c0,1.24,0,2.48,0,3.72-.31.06-.96-.09-1.21,0-.36-.47-.19-1.41-.2-2.01,0-.13-.1-.09-.1-.1,0-.5.1-1.08.1-1.61.47-.02.94.02,1.41,0Z" style="fill:#8c2926;"/><path d="M99.83,50.37c0,1.1,0,2.21,0,3.32l-1.41.1c0-1.15-.1-2.37-.1-3.52.49.04,1,.18,1.51.1Z" style="fill:#7a3a34;"/><path d="M99.83,53.69c0,.47,0,.94,0,1.41l-1.41.1c0-.23-.1-.34-.1-.4,0-.04,0-.07,0-.1,0-.2.1-.59.1-.9l1.41-.1Z" style="fill:#b68474;"/><path d="M99.83,48.96c0,.47,0,.94,0,1.41-.51.08-1.01-.06-1.51-.1,0-.07,0-.13,0-.2,0-.33.1-.74.1-1.11h1.41Z" style="fill:#b68474;"/><path d="M99.83,63.24c0,.07,0,.13,0,.2-.08,1.17-.59.47-1.41.8,0-.17-.11-.59-.1-.9l1.51-.1Z" style="fill:#9e786f;"/><path d="M98.62,39.01c.24-.09.9.06,1.21,0,0,.2,0,.4,0,.6l-1.41-.1c.05-.35-.14-.38.2-.5Z" style="fill:#b68474;"/><path d="M99.83,44.14l-1.41-.1s0-.07,0-.1l1.41-.1c0,.1,0,.2,0,.3Z" style="fill:#9e786f;"/><path d="M99.83,32.88c0,.8,0,1.61,0,2.41-.47.02-.94-.02-1.41,0,0-.8,0-1.61,0-2.41h1.41Z" style="fill:#9c3f2a;"/><path d="M99.83,30.77c0,.7,0,1.41,0,2.11h-1.41s0-.07,0-.1c0-.25-.1-.19-.1-.2,0-.57.1-1.21.1-1.81h1.41Z" style="fill:#8c2926;"/><path d="M99.83,28.86c0,.64,0,1.27,0,1.91h-1.41c0-.6,0-1.21,0-1.81l1.41-.1Z" style="fill:#7a3a34;"/><path d="M53.08,70.68l.1,3.52c-.07,0-.18.1-.4.1-.03-1.22.04-2.41.1-3.62.07,0,.13,0,.2,0Z" style="fill:#d16b4f;"/><path d="M86.56,69.07c.1,0,.2,0,.3,0,2.98,0,5.97-.07,8.95,0-.06.12-.1.57-.15.6-.42.25-5.77-.21-6.74,0-.43-.86-.25-.07-.5,0-6.79.19-13.68-.29-20.46-.1v-.5c6.2,0,12.4-.02,18.6,0Z" style="fill:#f1ae72;"/><path d="M73.09,70.88l-.1,3.42c-1.51,0-6.68.27-7.74-.1-.01-1.14,0-2.29.1-3.42,2.58-.08,5.17.06,7.74.1Z" style="fill:#d7844f;"/><path d="M57.3,70.68l.1.1-.15,3.52c-.23.17-3.52-.11-4.07-.1l-.1-3.52c1.4,0,2.83.24,4.22,0Z" style="fill:#ea9667;"/><path d="M64.54,69.67v1.11c-1.6-.42-5.22.32-7.04,0h-.1l-.1-.1-.05-1.11,7.29.1Z" style="fill:#f1ae72;"/><path d="M64.54,70.68v-1.01c.54-.36.64,1.16,0,1.01Z" style="fill:#ea9667;"/><path d="M64.54,70.78c0,1.16-.06,2.37,0,3.52h-6.89l-.15-3.52c1.81.32,5.44-.42,7.04,0Z" style="fill:#d7844f;"/><path d="M78.61,74.2c-1.56,0-3.79.11-5.63.1l.1-3.42c.07,0,.13,0,.2,0l.1,3.27c1,.18,2.02-.02,3.02-.05.25,0,1.56.26,1.71.05v-3.22l.2-.15.3,3.42Z" style="fill:#8c2926;"/><path d="M76.4,74.1c-1,.03-2.01.23-3.02.05l-.1-3.27c.44,0,3.05-.33,3.22.05l-.1,3.17Z" style="fill:#c95a4d;"/><path d="M98.42,59.52c0-.29-.1-.29-.1-.3,0-.17.1-.51.1-.8,0-.03,0-.07,0-.1l1.31.05c.09,1.38-.07,1.23-1.31,1.16Z" style="fill:#b68474;"/><path d="M40.92,67.26c.26.01.51.08.8.1l.1,1.71s.03.1-.1.1c-.68.02-1.34.07-2.01.1-.03,0-.07,0-.1,0,.07-.49,0-1.01,0-1.51,0-.16,0-.35,0-.5.43.02.88-.02,1.31,0Z" style="fill:#320807;"/><path d="M98.42,23.63c-.02.87.03,1.75,0,2.61-.02.67-.1,1.33-.1,2.01,0,.03,0,.07,0,.1-.23-.04-1.22.08-1.31-.05-.15-.22.19-3.06.05-3.17-4.83.17-9.68.11-14.53.1-.27,0-.54,0-.8,0-1.5-.57-4.09,1-3.52-1.61,6.59,0,13.69-.26,20.21,0Z" style="fill:#2a4e7d;"/><path d="M74.39,23.63c1.27,0,2.55,0,3.82,0-.58,2.61,2.02,1.04,3.52,1.61-4.62,0-9.25,0-13.87,0-.83,0-1.69-.1-2.51-.1l.1-1.51c2.98,0,5.98,0,8.95,0Z" style="fill:#2a4e7d;"/><path d="M73.79,67.56s-.03.1.1.1c1.4.01,2.84-.12,4.22-.1.03,0,.07,0,.1,0,.55,0,3.93.02,4.12.1.08.04.06.02.1.1.05.13-.01,1.01.15,1.11.39.23,3.29-.3,3.97.2-6.2-.02-12.4,0-18.6,0-5.02,0-10.05-.02-15.08,0-1.44,0-2.88,0-4.32,0l4.93-.2c.42,0,3.04.09,3.17,0s.01-.99.05-1.21c.03,0,.07,0,.1,0-.03.18.07,1.15.15,1.21.33.23,7.17-.19,8.14,0,.19-.08.13-.93.15-1.21.07,0,.13,0,.2,0,.43,0,.9-.1,1.31-.1,2.34,0,4.7-.02,7.04,0Z" style="fill:#1b253e;"/><path d="M43.63,67.46s-.05.08.2.1c1,.06,2.02.07,3.02.1,1.57.06,3.17-.06,4.72,0l-.8,1.06c.08.11,1.45.04,1.71.05.08,0,.1,0,.1,0,.27.01.65.1.9.1l-4.93.2c-2.24.01-4.5-.06-6.74,0l-.1-1.71c.64.05,1.28.06,1.91.1Z" style="fill:#2a4e7d;"/><path d="M40.92,30.57c0,.15-.2.07-.2.15,0,.08.2.04.2.05.13,7.75-.14,15.48.2,23.22-.15,1.72-.05,3.37-.1,5.13-.04,1.49-.1,2.93-.1,4.42,0,1.24,0,2.48,0,3.72-.43-.02-.87.02-1.31,0-.02-.46-.2-1.14-.2-1.21-.19-8.73.07-17.68.1-26.44.01-3.05.07-6.1.1-9.15,1.96.45.71-1.65,1.21-2.81.01.97.08,1.95.1,2.92Z" style="fill:#2a4e7d;"/><path d="M42.32,63.44c.2.57.07,1.22.1,1.81,0,.11-.27.3.05.5,1.67-.55,1.05.58,1.16,1.71-.63-.04-1.27-.05-1.91-.1-.29-.02-.54-.09-.8-.1,0-1.24,0-2.48,0-3.72l1.41-.1Z" style="fill:#37719e;"/><path d="M65.44,23.63l-.1,1.51c-2.81,0-5.63,0-8.44,0-4.71-.01-9.42,0-14.12,0-.27.12-.12.95-.15,1.21-.02.2.01.41,0,.6-.59-.82.4-1.95-1.11-2.01-.02-.49-.3-.7-.1-1.11.81.03,1.77-.1,2.61-.1s1.63-.1,2.41-.1c6.32-.04,12.67,0,19,0Z" style="fill:#306488;"/><path d="M46.44,23.63c-.79,0-1.61.1-2.41.1l2.41-.1Z" style="fill:#6b4558;"/><path d="M98.32,28.36c0,.07,0,.13,0,.2-.42-.1-.91.1-1.31.1-.07,0-.12,0-.2,0-.33.01-.87-.19-1.31,0-.04-.74.08-1.49-.15-2.21-1.35-.17-2.71-.08-4.07-.1-1.06-.38-8.22.17-8.6-.1-.15-.1.06-.8-.15-1.01,4.84,0,9.69.07,14.53-.1.14.1-.2,2.95-.05,3.17.09.13,1.08.01,1.31.05Z" style="fill:#477eae;"/><path d="M81.73,25.24c.27,0,.54,0,.8,0,.21.21,0,.9.15,1.01.38.27,7.53-.28,8.6.1-7.16-.11-14.36-.06-21.51,0-.78-.67-2.25.55-1.91-1.11,4.62,0,9.25,0,13.87,0Z" style="fill:#488ab3;"/><path d="M65.34,25.14c.82,0,1.68.1,2.51.1-.34,1.66,1.13.44,1.91,1.11-.1,0-.2,0-.3,0-1.51.01-3.02-.02-4.52,0-2.68-.04-5.36-.08-8.04-.1v-1.11c2.81,0,5.63,0,8.44,0Z" style="fill:#5c9ec1;"/><path d="M82.53,46.05v3.97l2.11.25c-1.52,1.53-3.12,2.98-4.62,4.52-.08.02-.13.07-.2.1l-5.78-.1-.05,4.17c.15.21,1.35-.06,1.61-.05v.2s-.28.09-.3.1l-1.26-.1-.05,1.41c-.04.07-.08.13-.1.2l-.2.1c0-.25.26-1.46.05-1.61h-3.92l-.05,3.97c.13.24,1.15.15,1.41.05v.2c-.07,0-.13,0-.2,0-.38.02-.77-.01-1.16,0-.06.04-.18,1,.15,1.01-.06.1-.18.2-.2.3h-.1c-.27-.24.09-1.16-.25-1.31-.51-.22-3.17.17-3.92,0-.08.06-.08,1.85,0,1.91.34.24,3.14-.06,3.27.2-.38-.03-3.13-.09-3.27,0s0,1.8-.05,2.11c-.07,0-.13,0-.2,0,.05-.72-.09-1.41-.1-2.11-.01-.61.22-1.32.1-1.96-.47-.3-1.05-.2-1.41.05-.52-.33,0-.38.1-.5l1.31-.05-.2-1.16s.03-.04.1-.1c.04-.03.14-.09.2-.1-.04.14.09,1.46.15,1.51l4.07-.05c-.09-.51.12-3.75,0-3.92s-1.52.09-1.81-.15c.07-.07.09-.18.2-.3l5.83.05c-.17-.75.22-3.42,0-3.92-.13-.3-1.58-.08-1.91-.15,2.34-2.49,5.37-6.35,7.84-8.44.19-.16.28-.44.6-.5.69.06,1.53.22,2.21.2Z" style="fill:#477eae;"/><path d="M60.72,64.55l.35,3.02.05-1.86c.16-.31,3.45-.08,4.02-.15.01.7.15,1.39.1,2.11-2.81,0-5.63-.03-8.44,0-.03,0-.07,0-.1,0-.54,0-3.91-.12-4.07,0-.12.09-.01.9-.05,1.11,0,0-.02,0-.1,0-.07-1.01.35-.98-.6-1.11l2.11-2.41c.19,0,.22-.1.3-.1,1.05-.05,1.65-.06,2.61-.2.4-.06,1.5.01,1.81-.1.32.6.99-.2,1.46-.3.04,0,.38.03.55,0Z" style="fill:#37719e;"/><path d="M68.96,65.55c.21.03.45-.09.6.15l.05,1.66.3-1.81c.71.16,3.24-.21,3.72,0,.31.14.08,1.68.15,2.01-2.33-.02-4.7,0-7.04,0l2.01-2.01c.07,0,.14,0,.2,0Z" style="fill:#173e6d;"/><path d="M65.24,67.66c-.02.27.04,1.12-.15,1.21-.97-.19-7.81.23-8.14,0-.08-.06-.18-1.03-.15-1.21,2.81-.03,5.63,0,8.44,0Z" style="fill:#173e6d;"/><path d="M83.44,67.66c1.1-.01,2.22-.01,3.32,0,1.28.01,2.55,0,3.82,0,.25,0,.19.1.2.1l-.05,1.11-3.87.2c-.1,0-.2,0-.3,0-.68-.5-3.58.03-3.97-.2-.16-.1-.1-.98-.15-1.11.09,0,.1-.09.2-.1.23-.03.55,0,.8,0Z" style="fill:#152c52;"/><path d="M78.01,65.55c0,.64.21,1.35.1,2.01-1.39-.02-2.82.11-4.22.1.25-.32-.03-1.99.15-2.11.19-.13,3.45.11,3.97,0Z" style="fill:#173e6d;"/><path d="M82.33,67.66c-.19-.08-3.57-.09-4.12-.1l.25-2.01h3.82l.05,2.11Z" style="fill:#173e6d;"/><path d="M56.7,67.66c-.04.22.07,1.12-.05,1.21s-2.75,0-3.17,0c-.25,0-.64-.09-.9-.1.04-.21-.07-1.02.05-1.11.17-.12,3.53,0,4.07,0Z" style="fill:#173e6d;"/><path d="M68.76,65.55l-2.01,2.01c-.4,0-.87.1-1.31.1.05-.31-.08-2.02.05-2.11s2.89-.03,3.27,0Z" style="fill:#37719e;"/><path d="M78.31,63.54l.15,1.91c1.84-.33,4.75,1.14,3.87-1.91.07,0,.13,0,.2,0,0,.57,0,1.14,0,1.71,0,.04.1.32.1.4,0,.59-.29,1.39,0,2.01-.1.01-.11.1-.2.1-.04-.08-.02-.06-.1-.1l-.05-2.11h-3.82l-.25,2.01s-.07,0-.1,0c.1-.66-.1-1.37-.1-2.01,0-.07,0-.13,0-.2,0-.58.26-1.22,0-1.81.1,0,.2,0,.3,0Z" style="fill:#2a4e7d;"/><path d="M52.48,65.65c.36-.19.12-.42.35-.5.05-.02.89.11,1.16.1l-2.11,2.41c-.1-.01-.2,0-.3,0-1.55-.06-3.16.06-4.72,0,.35-.81,1.23-1.23,1.41-1.91.12-.46-.02-.57,0-.9,0-.03,0-.07,0-.1l1.11.05-.65.85c.65-.15,3.39.19,3.77,0Z" style="fill:#477eae;"/><path d="M48.25,65.75c-.18.68-1.06,1.1-1.41,1.91-1-.04-2.02-.04-3.02-.1.04-.29-.08-1.82.05-1.91.18-.13,3.84.02,4.37.1Z" style="fill:#37719e;"/><path d="M48.25,64.85c-.02.33.12.45,0,.9-.53-.08-4.19-.23-4.37-.1-.13.09,0,1.62-.05,1.91-.25-.02-.19-.1-.2-.1-.1-1.13.52-2.26-1.16-1.71-.32-.2-.05-.4-.05-.5,2.14.11,3.86-.35,5.83-.4Z" style="fill:#477eae;"/><path d="M51.87,67.66c.95.12.53.09.6,1.11-.26-.01-1.63.06-1.71-.05l.8-1.06c.1,0,.21-.01.3,0Z" style="fill:#173e6d;"/><path d="M42.42,30.77v.1c0,6.47-.3,12.94-.2,19.4l-.25-1.11c-.62,1.12-.39,2.43-.55,3.67-.04.32-.28.89-.3,1.16-.35-7.74-.08-15.48-.2-23.22h1.51Z" style="fill:#477eae;"/><path d="M42.22,50.27c0,.68.08,1.35.1,2.01.02.73.08,1.47.1,2.21.03.86-.12,1.82-.1,2.71-.4,1.25.61,2.19-1.31,1.91.05-1.76-.05-3.41.1-5.13.02-.27.26-.84.3-1.16.16-1.24-.07-2.55.55-3.67l.25,1.11Z" style="fill:#488ab3;"/><path d="M42.62,26.95c0,.08-.09.11-.1.3-.06,1.06.06,2.16,0,3.22,0,0,.03.1-.1.1-.5,0-1.01,0-1.51,0-.02-.96-.09-1.94-.1-2.92,0-.47.06-.95-.1-1.41.16-.01.72.08.8-.05,0-.42.01-.84,0-1.26,1.51.06.52,1.19,1.11,2.01Z" style="fill:#37719e;"/><path d="M42.62,60.73l-.3,2.71-1.41.1c0-1.49.06-2.94.1-4.42,1.92.28.91-.66,1.31-1.91.03,1.44.01,2.1.3,3.52Z" style="fill:#477eae;"/><path d="M40.71,26.24c.16.46.09.94.1,1.41-.5,1.17.76,3.27-1.21,2.81.01-1.38.08-2.74.1-4.12.33-.09.66-.08,1.01-.1Z" style="fill:#4b576c;"/><path d="M42.42,30.57v.2h-1.51s-.2.03-.2-.05c0-.08.2,0,.2-.15.5,0,1.01,0,1.51,0Z" style="fill:#5c9ec1;"/><path d="M42.62,60.73c.26,1.26.6,2.5,1.36,3.52.04,0,.28-.64.35-.8.54.1,3.62-.11,3.82.15.02.02-.15.49.1.55,0,.2.01.4,0,.6,0,.03,0,.07,0,.1-1.97.05-3.69.51-5.83.4-.03-.59.1-1.24-.1-1.81l.3-2.71Z" style="fill:#488ab3;"/><path d="M98.32,59.22s.1.01.1.3c-.01,1.28-.07,2.54-.1,3.82,0,.32.1.73.1.9,0,.22-.2.89-.2,1.11l-2.46.1c-.37-.16-.04-1.68-.05-2.01.23-.04,1.22.08,1.31-.05.13-.18-.1-3.64,0-4.17.43,0,.87,0,1.31,0Z" style="fill:#173e6d;"/><path d="M98.22,65.65c-.02.65.12,1.35,0,2.01-.07,0-.13,0-.2,0-.8-.02-1.61,0-2.41,0,.05-.3,0-1.9.15-2.01.32-.24,1.99.13,2.46,0Z" style="fill:#173e6d;"/><path d="M98.02,67.66l-.2,1.41c-.29-.09-1.48.01-1.91,0-.03,0-.07,0-.1,0-2.97-.07-5.97,0-8.95,0l3.87-.2.05-1.11c.07,0,.13,0,.2,0,0,.24-.09,1,.15,1.11,1.21-.02,2.5.33,2.97-1.11.25,0,.38-.1.4-.1.37,0,.74,0,1.11,0,.8,0,1.61-.02,2.41,0Z" style="fill:#1b253e;"/><path d="M56.9,25.14v1.11c-4.32-.03-8.65-.06-12.97.1-.35.01-.91-.09-1.31,0,.03-.25-.11-1.09.15-1.21,4.71,0,9.42-.01,14.12,0Z" style="fill:#75b1d4;"/><path d="M43.93,26.35l-.25,4.12-.96-.05c-.02-.9.03-1.81,0-2.71,0-.18.1-.5-.2-.45.01-.19.09-.22.1-.3.01-.2-.02-.41,0-.6.4-.09.96.01,1.31,0Z" style="fill:#a1cded;"/><path d="M69.77,26.35c7.16-.06,14.36-.11,21.51,0,1.36.02,2.72-.07,4.07.1.23.72.11,1.47.15,2.21.01.23,0,.47,0,.7l-3.02,3.42c-.13.03-.18.02-.3.1-.11-.47-1.04.03-1.21-.35s.23-1.79-.1-2.26c.7-.59,1.36-1.23,2.11-1.76-.04-.33-.78-.02-.9-.2-.1-.15.13-.92.05-.96-.21-.11-4.44.46-4.62.6-.05.04-.13.65-.4.9-.07.07-.39.09-.4.1-7.58,6.97-14.69,14.63-22.47,21.31-1.18.25-3.45-.76-3.17,1.11-.23-.26.06-1-.3-1.11h-3.72c-.45.15,0,3.56-.25,4.17.38.44,1.73-.07,2.21.3l-2.21.2-.05,2.46-.2-2.61h-3.72l-.15,4.07c.11.25,1.68.15,2.01.15-.27.49-1.83,0-2.01.25-.07.09-.02,1.99.1,2.26-.17.17-.29.19-.3.2l-.15-2.51-4.02.1.05,3.97,2.61-.05c-.1.1-.21.2-.3.3l-2.26-.1c-.1.01-.15.6-.15.7-.25-.07-.08-.53-.1-.55-.2-.27-3.28-.05-3.82-.15.63-1.44,1.26-2.8,1.91-4.22,1.78-3.91,3.57-7.83,5.43-11.71,1.61-3.36,3.7-8.53,5.63-11.51.32-.5.52-.47.55-.5,3.26-3.03,7.58-5.6,11.06-8.44.18-.15.58-.44.55-.7.1,0,.2,0,.3,0Z" style="fill:url(#uuid-abbcbb19-bcef-43b4-8218-2be4a9ce2964);"/><path d="M97.01,28.66c.09.5-.12,3.7,0,3.87.09.13,1.08.01,1.31.05,0,.01.1-.05.1.2-.46-.1-.97.09-1.41.1-.23,0-1.25-.31-1.41.05l.05,3.77,1.16-.05.2-3.47c0,.48-.11,3.52,0,3.67.09.13,1.08.01,1.31.05,0,0,.1-.03.1.1-.12-.02-.09.08-.1.1l-1.26-.1c-.1.07-.04,1.19-.05,1.41,0,.03,0,.07,0,.1-.52.55-1.17.99-1.71,1.51l.1-2.87-2.71-.2,2.81-.2c-.09-1.34.08-2.69.1-4.02,0-.07-.2-.14-.2-.15,0-.57.2-.37.2-.4-.28.55,1.07.3,1.11.25.11-.15.05-3.31.1-3.77.08,0,.13,0,.2,0Z" style="fill:#477eae;"/><path d="M98.32,28.56c0,.25.1.38.1.4,0,.6,0,1.21,0,1.81s-.1,1.24-.1,1.81c-.23-.04-1.22.08-1.31-.05-.12-.17.09-3.37,0-3.87.4,0,.88-.2,1.31-.1Z" style="fill:#2a4e7d;"/><path d="M96.81,28.66c-.05.46,0,3.62-.1,3.77-.04.05-1.39.3-1.11-.25,0-.95-.07-1.87-.1-2.81,0-.23.01-.47,0-.7.44-.19.97.01,1.31,0Z" style="fill:#37719e;"/><path d="M69.47,26.35c.03.26-.37.56-.55.7-3.48,2.84-7.8,5.42-11.06,8.44-.03.03-.23,0-.55.5l-11.61,8.95c-1.01,1.01-1.39,3.86-2.06,5.28-.75.46-.23-.19-.45-.45-.1.22-.32.28-.45.5.4-5.58,1.14-11.19,1.11-16.79l.2.75.4-3.67,1.06-4.02c3.72.04,7.44.26,11.16.2,2.5-.04,5.59-.37,8.29-.4,1.51-.02,3.02.01,4.52,0Z" style="fill:url(#uuid-c1c36171-ad03-427f-8ccc-7aabdc200d07);"/><path d="M56.9,26.24c2.68.02,5.36.06,8.04.1-2.7.03-5.79.37-8.29.4-3.72.05-7.44-.17-11.16-.2l-1.06,4.02c-.63.11-1.3-.1-1.91-.1.06-1.06-.06-2.16,0-3.22.3-.04.2.27.2.45.03.9-.02,1.81,0,2.71l.96.05.25-4.12c4.32-.16,8.65-.13,12.97-.1Z" style="fill:#a1cded;"/><path d="M98.32,54.8c0,.07.1.17.1.4,0,1.04,0,2.08,0,3.12,0,.03,0,.07,0,.1l-.15-.5c-.14,0,.4,1.68-1.26,1.06.09-.52-.12-3.85,0-4.02.06-.09,1.11-.18,1.31-.15Z" style="fill:#173e6d;"/><path d="M98.62,39.01c-.34.12-.16.15-.2.5-.16,1.24.01,3.1,0,4.42,0,.03,0,.07,0,.1-.01,1.64,0,3.29,0,4.93,0,.37-.1.77-.1,1.11l-1.41.15c.46.12.94.02,1.41.05,0,1.15.11,2.36.1,3.52,0,.32-.1.7-.1.9-.24-.04-1.32.08-1.41-.05-.19-.26.27-3.69-.2-4.37-.24-.36-.59-.15-1.01-.2l1.11-.15c.18-3.8.09-7.61.2-11.41,0-.03,0-.07,0-.1.43-.41.97-.81,1.31-1.31.01-.02-.02-.12.1-.1,0,.6-.16,1.54.2,2.01Z" style="fill:#173e6d;"/><path d="M98.42,32.78s0,.07,0,.1c0,.8,0,1.61,0,2.41,0,.53-.1,1.1-.1,1.61-.23-.04-1.22.08-1.31-.05-.11-.15,0-3.19,0-3.67v-.3c.44,0,.95-.2,1.41-.1Z" style="fill:#2a4e7d;"/><path d="M98.32,50.07c0,.07,0,.13,0,.2-.46-.03-.95.07-1.41-.05l1.41-.15Z" style="fill:#2a4e7d;"/><path d="M95.3,40.02c-2.05,1.97-4.07,3.97-6.13,5.93-2.26-.04-2.79-.42-2.31,2.21-.11.1-.16.35-.4.3.04-.2.06-2.46-.05-2.51-1.29-.09-2.59.07-3.87.1-.69.02-1.52-.14-2.21-.2-.21-.3.06-.16.1-.2.31-.04,1.9.12,2.01-.15.04-.08.05-1.7-.2-1.76,2.97-3.12,5.82-6.67,8.85-9.65.22-.22,1.04-1.16,1.11-1.21.12-.08.17-.07.3-.1.84-.17,2.16.29,2.92-.2,0,.01.2.08.2.15-.02,1.33-.19,2.68-.1,4.02l-2.81.2,2.71.2-.1,2.87Z" style="fill:#477eae;"/><path d="M79.82,54.9c-.2.1-1.31,1.43-1.61,1.71-.07.07-.18.09-.3.2-.72.69-1.47,1.35-2.11,2.11-.07,0-.13,0-.2,0-.25,0-1.46.26-1.61.05l.05-4.17,5.78.1Z" style="fill:#37719e;"/><path d="M73.89,60.73c.02-.07.07-.13.1-.2.04-.08,1.22-1.27,1.31-1.31.03-.01.28-.1.3-.1.12-.02,2.32.08,2.41.15l-.05,3.97h-3.92c.08-.51-.24-2.16-.15-2.51Z" style="fill:#2a4e7d;"/><path d="M78.21,56.6c.3-.27,1.41-1.61,1.61-1.71.07-.03.12-.08.2-.1.19-.05,2.15-.04,2.21.05l.1,4.02-3.97.15-.15-2.41Z" style="fill:#2a4e7d;"/><path d="M86.46,48.46c-.11.48-1.42,1.42-1.81,1.81l-2.11-.25v-3.97c1.28-.03,2.58-.19,3.87-.1.12.05.1,2.31.05,2.51Z" style="fill:#477eae;"/><path d="M73.69,60.83s0,.07,0,.1c-.73.46-1.63,1.83-2.31,2.21-.06.04-.13.07-.2.1-.25.1-1.28.19-1.41-.05l.05-3.97h3.92c.21.15-.06,1.35-.05,1.61Z" style="fill:#37719e;"/><path d="M94.5,67.66s-.15.1-.4.1c-1.04,0-2.08,0-3.12,0,0-.7.17-1.49.15-2.21h4.12c.22.98.09,1.57-.75,2.11Z" style="fill:#173e6d;"/><path d="M90.58,67.66c-1.27,0-2.54.01-3.82,0l.15-2.11h3.72l-.05,2.11Z" style="fill:#173e6d;"/><path d="M78.01,63.54c.26.59,0,1.23,0,1.81-.55.12-3.88.22-4.02-.05-.04-.08-.05-1.74,0-1.81.15-.21,3.53.05,4.02.05Z" style="fill:#173e6d;"/><path d="M82.33,63.54c.88,3.05-2.03,1.58-3.87,1.91l-.15-1.91c1.35,0,2.67,0,4.02,0Z" style="fill:#173e6d;"/><path d="M69.67,64.75l-.7.8c-.06,0-.14,0-.2,0-.12-.26-2.93.04-3.27-.2-.08-.06-.08-1.85,0-1.91.75.17,3.41-.22,3.92,0,.34.15-.02,1.07.25,1.31Z" style="fill:#37719e;"/><path d="M83.44,67.66c-.25,0-.57-.03-.8,0-.29-.62,0-1.43,0-2.01l3.92.05c-.25.29.03,1.73-.15,1.86-.21.15-2.52-.19-2.97.1Z" style="fill:#173e6d;"/><path d="M71.17,63.44c1.9-.06,3.23-.54,2.46,2.01-.72-.16-3.23.21-3.72,0-.19-.09-.18-.54-.15-.7.02-.1.14-.2.2-.3.16-.25.86-.65,1.01-1.01.07,0,.13,0,.2,0Z" style="fill:#2a4e7d;"/><path d="M82.53,65.25c0-.57,0-1.14,0-1.71.52,0,3.66-.25,3.87-.1l.05,1.76-3.92.05Z" style="fill:#173e6d;"/><path d="M97.01,59.22c-.1.53.13,3.99,0,4.17-.09.13-1.08.01-1.31.05-.04-1.35-.18-2.71-.1-4.07.11-.25,1.15-.15,1.41-.15Z" style="fill:#2a4e7d;"/><path d="M89.17,45.95c-.77.73-1.53,1.48-2.31,2.21-.48-2.63.06-2.25,2.31-2.21Z" style="fill:#477eae;"/><path d="M71.38,63.14c.68-.39,1.58-1.75,2.31-2.21,0,.31.25,2.07.05,2.21h-2.36Z" style="fill:#2a4e7d;"/><path d="M75.8,58.92c.64-.77,1.4-1.42,2.11-2.11-.18.5.31,2.08.05,2.21-.72.09-1.46-.08-2.16-.1Z" style="fill:#2a4e7d;"/><path d="M95.7,50.07l-.05.2h1.06c.47.68.01,4.11.2,4.37.09.13,1.17,0,1.41.05,0,.03,0,.07,0,.1-.19-.03-1.24.06-1.31.15-.12.17.09,3.5,0,4.02,1.66.63,1.11-1.05,1.26-1.06l.15.5c0,.29-.1.64-.1.8-.43,0-.87,0-1.31,0-.26,0-1.3-.1-1.41.15-.08,1.36.06,2.72.1,4.07.01.33-.32,1.85.05,2.01l2.46-.1c0,.1,0,.19,0,.3-.47.13-2.15-.24-2.46,0-.15.11-.1,1.71-.15,2.01-.36,0-.74,0-1.11,0,.85-.54.97-1.13.75-2.11h-4.12c.02.72-.15,1.51-.15,2.21-.07,0-.13,0-.2,0-.01,0,.05-.1-.2-.1l.05-2.11h-3.72l-.15,2.11c-1.1-.01-2.22-.01-3.32,0,.44-.29,2.75.05,2.97-.1.18-.13-.1-1.57.15-1.86l-3.92-.05c0-.08-.1-.37-.1-.4l3.92-.05-.05-1.76c-.21-.15-3.35.11-3.87.1-.07,0-.13,0-.2,0-1.35,0-2.67,0-4.02,0-.1,0-.2,0-.3,0-.49,0-3.87-.26-4.02-.05-.05.07-.04,1.73,0,1.81.14.27,3.47.17,4.02.05,0,.07,0,.13,0,.2-.52.11-3.78-.13-3.97,0s.1,1.79-.15,2.11c-.13,0-.09-.1-.1-.1-.07-.33.16-1.87-.15-2.01-.48-.21-3.01.16-3.72,0l-.3,1.81-.05-1.66c-.16-.24-.39-.12-.6-.15l.7-.8h.1c-.03.17-.04.62.15.7.49.21,3-.16,3.72,0,.77-2.56-.56-2.07-2.46-2.01v-.2c.07-.03.14-.06.2-.1h2.36c.2-.14-.04-1.9-.05-2.21,0-.03,0-.07,0-.1l.2-.1c-.08.35.23,2.01.15,2.51h3.92l.05-3.97c-.09-.07-2.29-.17-2.41-.15v-.2c.07,0,.13,0,.2,0,.7.02,1.44.2,2.16.1.26-.13-.23-1.71-.05-2.21.12-.11.23-.13.3-.2l.15,2.41,3.97-.15-.1-4.02c-.06-.09-2.02-.1-2.21-.05,1.51-1.54,3.1-3,4.62-4.52.39-.39,1.7-1.33,1.81-1.81.24.05.29-.2.4-.3.78-.73,1.54-1.48,2.31-2.21,2.06-1.96,4.08-3.96,6.13-5.93.54-.52,1.19-.96,1.71-1.51-.11,3.8-.02,7.61-.2,11.41l-1.11.15Z" style="fill:#2a4e7d;"/><polygon points="91.13 54.8 95.4 54.95 95.25 59.02 90.98 58.87 91.13 54.8" style="fill:#2a4e7d;"/><polygon points="91.13 59.22 95.35 59.22 95.3 63.09 91.13 63.24 91.13 59.22" style="fill:#2a4e7d;"/><polygon points="86.91 54.8 90.78 54.95 90.63 59.02 86.76 58.87 86.91 54.8" style="fill:#2a4e7d;"/><polygon points="82.69 54.8 86.46 54.85 86.41 59.02 82.53 58.87 82.69 54.8" style="fill:#2a4e7d;"/><polygon points="78.36 59.22 82.33 59.27 82.18 63.14 78.31 63.19 78.36 59.22" style="fill:#2a4e7d;"/><path d="M89.92,59.12c.2,0,.78-.08.85.15l-.1,3.82-3.77.05-.15-3.87c1.04.03,2.14-.16,3.17-.15Z" style="fill:#173e6d;"/><polygon points="82.59 59.22 86.56 59.27 86.41 63.14 82.53 63.09 82.59 59.22" style="fill:#2a4e7d;"/><polygon points="91.13 63.44 95.25 63.44 95.3 65.2 91.13 65.35 91.13 63.44" style="fill:#173e6d;"/><path d="M86.91,63.44c.48-.21,3.01.16,3.72,0l.05,1.76-3.87.05c-.04-.3-.17-1.69.1-1.81Z" style="fill:#173e6d;"/><path d="M96.71,50.27h-1.06l.05-.2c.41.05.76-.16,1.01.2Z" style="fill:#306488;"/><path d="M95.45,41.73c.28.08.14.7.1.9-.28-.08-.14-.7-.1-.9Z" style="fill:#37719e;"/><path d="M91.08,34.09c-3.03,2.98-5.87,6.53-8.85,9.65-.6.63-1.2,1.28-1.81,1.91-.04.04-.31-.09-.1.2-.33.06-.41.34-.6.5h-1.16c-.39-.16.46-1.14-.3-1.31-1.35,1.62-2.98,2.95-4.47,4.42-.16-.5.13-2.99,0-3.27s-.2-.28-.5-.25c1.74-1.67,13.74-13.12,14.88-13.27.39-.05,1.79.34,2.36.1.59.16.02,1.14.55,1.31Z" style="fill:#5c9ec1;"/><path d="M79.72,46.35c-2.48,2.09-5.5,5.95-7.84,8.44-.74.79-1.57,1.52-2.31,2.31-.28-1.03.61-2.55-1.01-2.31.35-.34.66-.76,1.01-1.11,1.42-1.4,2.81-2.82,4.22-4.22,1.49-1.47,3.13-2.8,4.47-4.42.77.16-.09,1.15.3,1.31h1.16Z" style="fill:#5c9ec1;"/><path d="M65.14,61.83c-.07.06-.07.07-.1.1-.37.39-.76.79-1.11,1.21-.1.12-.62.17-.1.5-.18.12-.19.48-.55.6-.44.15-1.93.18-2.56.3-.18.03-.51,0-.55,0-.47.1-1.14.9-1.46.3.36-.13.87-1.05,1.11-1.31,1.32-1.43,2.64-2.85,4.02-4.22.15-.15.6-.4.7-.5.02.58.57.21.7.55.09.21-.11,2.07-.1,2.46Z" style="fill:#5c9ec1;"/><path d="M67.96,58.82c.53-.57,1.08-1.14,1.61-1.71.74-.79,1.58-1.53,2.31-2.31.33.07,1.78-.15,1.91.15.22.5-.17,3.17,0,3.92l-5.83-.05Z" style="fill:#477eae;"/><path d="M69.57,57.11c-.53.57-1.08,1.14-1.61,1.71-.11.12-.14.23-.2.3-.5.55-2.24,1.99-2.41,2.61-.06.01-.16.07-.2.1,0-.4.19-2.25.1-2.46-.14-.34-.68.03-.7-.55,1.34-1.33,2.68-2.69,4.02-4.02,1.62-.24.73,1.28,1.01,2.31Z" style="fill:#5c9ec1;"/><path d="M65.34,61.73c.17-.62,1.91-2.06,2.41-2.61.29.24,1.69-.02,1.81.15s-.09,3.41,0,3.92l-4.07.05c-.07-.05-.19-1.37-.15-1.51Z" style="fill:#37719e;"/><path d="M65.14,65.55c-.57.08-3.86-.16-4.02.15l-.05,1.86-.35-3.02c.63-.12,2.12-.15,2.56-.3.36-.12.38-.48.55-.6.35-.25.94-.35,1.41-.05.12.64-.11,1.35-.1,1.96Z" style="fill:#37719e;"/><path d="M75.3,59.22c-.08.04-1.26,1.23-1.31,1.31l.05-1.41,1.26.1Z" style="fill:#37719e;"/><path d="M63.94,63.14c.34-.41.73-.82,1.11-1.21l.2,1.16-1.31.05Z" style="fill:#37719e;"/><path d="M70.97,63.44c-.15.36-.85.75-1.01,1.01-.33,0-.21-.96-.15-1.01.38-.01.77.02,1.16,0Z" style="fill:#37719e;"/><path d="M55.49,59.02c.22.31.77.04.96.1.52.16.04,2.73.25,3.32-.84.86-1.65,1.79-2.41,2.71-.08,0-.11.09-.3.1-.27,0-1.1-.12-1.16-.1-.24.09.01.32-.35.5.37-1.07-2.72-.47-3.02-.85.43-.39.8-.84,1.21-1.26.1-.1.2-.2.3-.3.49-.5,1.01-1.02,1.51-1.51.01-.01.13-.03.3-.2.83-.81,1.68-1.6,2.51-2.41.14-.13.19-.09.2-.1Z" style="fill:#5c9ec1;"/><path d="M63.84,59.32c-1.38,1.37-2.7,2.79-4.02,4.22l-2.87-.1-.05,1.51c-.97.14-1.56.15-2.61.2.76-.93,1.58-1.86,2.41-2.71,1.07-1.1,2.24-2.13,3.32-3.22l3.82.1Z" style="fill:#488ab3;"/><path d="M59.82,63.54c-.23.25-.75,1.18-1.11,1.31-.31.11-1.41.04-1.81.1l.05-1.51,2.87.1Z" style="fill:#488ab3;"/><path d="M50.67,63.54c-.4.42-.77.87-1.21,1.26.29.38,3.39-.21,3.02.85-.38.19-3.12-.15-3.77,0l.65-.85-1.11-.05c.01-.2,0-.4,0-.6,0-.1.05-.69.15-.7l2.26.1Z" style="fill:#5c9ec1;"/><path d="M43.83,33.48c.04,5.6-.71,11.21-1.11,16.79,0,.01-.17-.04-.2.05-.1.31.04,1.45,0,1.91s-.04.15-.2.05c-.02-.66-.09-1.34-.1-2.01-.1-6.47.2-12.93.2-19.4l1.41.05c0,.85,0,1.71,0,2.56Z" style="fill:#a1cded;"/><path d="M44.43,30.57l-.4,3.67-.2-.75c0-.85,0-1.71,0-2.56l-1.41-.05v-.3c.13,0,.09-.1.1-.1.61,0,1.28.21,1.91.1Z" style="fill:#d5f0fe;"/><path d="M57.3,36c-1.93,2.98-4.02,8.15-5.63,11.51-1.86,3.88-3.65,7.8-5.43,11.71-1.07.04-1.32.14-2.06-.6-.04-.04-.27.06-.35-.05-.13-.18-.55-2.53-.7-3.02-.04-.14-.42-1.35-.7-1.06-.02-.74-.08-1.48-.1-2.21.16.1.16.39.2-.05.04-.46-.1-1.6,0-1.91.03-.09.19-.04.2-.05.13-.22.35-.28.45-.5.22.27-.3.92.45.45.67-1.42,1.05-4.27,2.06-5.28l11.61-8.95Z" style="fill:url(#uuid-67f7bd93-d484-467c-82c9-32227125855d);"/><path d="M46.24,59.22c-.65,1.42-1.28,2.78-1.91,4.22-.07.16-.31.8-.35.8-.76-1.02-1.1-2.26-1.36-3.52-.29-1.42-.27-2.07-.3-3.52-.02-.89.13-1.85.1-2.71.28-.3.66.92.7,1.06.15.49.58,2.83.7,3.02.08.11.31.01.35.05.75.74.99.64,2.06.6Z" style="fill:#6ecbed;"/><path d="M94.1,67.76c-.47,1.44-1.76,1.09-2.97,1.11-.24-.11-.15-.87-.15-1.11,1.04,0,2.08,0,3.12,0Z" style="fill:#152c52;"/><path d="M90.88,30.27c-.93.78-2,1.34-2.71,2.41-1.14.15-13.14,11.6-14.88,13.27-1.46,1.41-3.02,2.76-4.32,4.32-.63.1-7.87,7.86-8.95,8.95s-2.25,2.12-3.32,3.22c-.22-.59.27-3.15-.25-3.32-.18-.06-.73.21-.96-.1,2.64-2.56,6.32-5.71,8.65-8.39.13-.15.26-.14.1-.35,7.78-6.68,14.89-14.34,22.47-21.31.02-.01.33-.03.4-.1.27-.26.35-.86.4-.9.18-.15,4.42-.71,4.62-.6.08.04-.15.81-.05.96.13.18.86-.13.9.2-.76.53-1.41,1.17-2.11,1.76Z" style="fill:url(#uuid-715bb20c-b1aa-4162-beab-a1ad0aec9e3a);"/><path d="M64.24,50.27c.16.21.03.2-.1.35-2.32,2.68-6,5.83-8.65,8.39,0,0-.06-.03-.2.1-.26-.26-.42-.1-.6-.1-.33,0-1.9.1-2.01-.15l.15-4.07h3.72l.2,2.61.05-2.46,2.21-.2c-.48-.37-1.83.14-2.21-.3.24-.61-.2-4.02.25-4.17h3.72c.36.11.08.84.3,1.11-.28-1.86,1.98-.86,3.17-1.11Z" style="fill:#5c9ec1;"/><path d="M52.48,61.73c-.5.49-1.02,1.01-1.51,1.51l-2.61.05-.05-3.97,4.02-.1.15,2.51Z" style="fill:#488ab3;"/><path d="M95.5,29.36c.03.94.11,1.87.1,2.81,0,.03-.19-.17-.2.4-.76.49-2.08.03-2.92.2l3.02-3.42Z" style="fill:#488ab3;"/><path d="M92.19,32.88c-.07.04-.89.99-1.11,1.21-.53-.17.03-1.15-.55-1.31-.57.24-1.98-.15-2.36-.1.72-1.08,1.79-1.63,2.71-2.41.33.47-.06,1.9.1,2.26s1.1-.12,1.21.35Z" style="fill:#75b1d4;"/><path d="M55.29,59.12c-.83.81-1.68,1.6-2.51,2.41-.12-.28-.17-2.17-.1-2.26.18-.25,1.74.24,2.01-.25.19,0,.34-.16.6.1Z" style="fill:#488ab3;"/><path d="M97.01,32.88v.3l-.2,3.47-1.16.05-.05-3.77c.16-.36,1.18-.05,1.41-.05Z" style="fill:#37719e;"/><path d="M98.32,37.1c-.33.5-.87.9-1.31,1.31,0-.22-.05-1.34.05-1.41l1.26.1Z" style="fill:#2a4e7d;"/><path d="M80.42,45.65c.61-.63,1.21-1.28,1.81-1.91.25.06.24,1.68.2,1.76-.11.27-1.7.11-2.01.15Z" style="fill:#477eae;"/><path d="M73.79,49.47c-1.41,1.4-2.8,2.82-4.22,4.22v-3.27c-.09-.19-.43-.18-.6-.15,1.31-1.56,2.86-2.91,4.32-4.32.3-.03.37-.03.5.25s-.16,2.77,0,3.27Z" style="fill:#5c9ec1;"/><path d="M68.96,50.27c.18-.03.51-.04.6.15v3.27c-.35.34-.66.76-1.01,1.11-1.34,1.34-2.68,2.69-4.02,4.02-.11.11-.55.35-.7.5l-3.82-.1c1.07-1.09,8.32-8.85,8.95-8.95Z" style="fill:#5c9ec1;"/><path d="M98.72,78.32c.2,0,1.13-.05,1.21.05-.09.72.07,1.45.1,2.16,0,.07,0,.13,0,.2-.43.15-.87.09-1.31.1-2.21.03-4.43.06-6.63-.1-.11-.02-.08.06-.1.1l-8.8-.1-.15.9c-.13,0-.27,0-.4,0l.05-.9c-1.65.28-3.33.01-4.98,0v-2.41c6.89,0,14.17-.31,21.01,0Z" style="fill:#8c2926;"/><path d="M100.13,119.54c.01.43,0,.87,0,1.31-20.06.46-40.86.45-60.92,0v-.1h9.15c7.89,0,15.78-.12,23.67-.1l.2-1.11c3.47,0,6.94.01,10.4,0,5.3-.02,10.62.01,15.93,0,.23-.1.14-1.4.15-1.71.21-.04,1.02.07,1.11-.05.18-.25-.04-2.53.2-2.97.01,1.58.06,3.15.1,4.72Z" style="fill:#6f1e12;"/><path d="M48.86,116.22c2.71-.09,5.43.1,8.14.1,0,.48-.25,1.07-.1,1.61-2.84.04-5.7.08-8.55.1-.03,0-.27-.1-.5-.1-2.88.02-5.76.17-8.65.1v-2.81c1.93.23,1.49-.13,1.61-1.81,0-.03,0-.07,0-.1,3.06-.38,1.86.71,2.16,2.92,1.96,0,3.93.01,5.88,0Z" style="fill:#bc6437;"/><path d="M100.03,82.74c.08,8.37.13,16.76.1,25.13l-1.41.1s0-.07,0-.1c.28-8.12,0-16.57,0-24.73v-1.51c.21.04,1.07-.06,1.16,0,.17.12-.1.93.15,1.11Z" style="fill:#c95a4d;"/><path d="M40.71,93.9c.26,5.83.45,13.65.1,19.4,0,.03,0,.07,0,.1h-1.61c0-7.3,0-14.61,0-21.92l1.41.15c-.12.76.07,1.51.1,2.26Z" style="fill:#fed48f;"/><path d="M40.61,78.02l.1.2c.03.87-.04,1.75,0,2.61.04.98.09,1.93.1,2.92.04,3.37-.05,6.78-.1,10.15-.03-.75-.22-1.5-.1-2.26l-1.41-.15c0-4.49.05-8.98,0-13.47.46.04.94-.03,1.41,0Z" style="fill:#fee3ae;"/><path d="M97.01,107.77s-.02.2.3.2c-.1.21-.04,1.59,0,1.66.04.07,1.37.14,1.41-.1.02-.52-.02-1.04,0-1.56l1.41-.1c0,1.7-.1,3.42-.1,5.13-.39.19-1.26-.08-1.31.3-.07,0-.13,0-.2,0-.26-.44-1.06-.5-1.51-.4-.03-.55.07-1.24,0-1.76s-.4-.47-.4-.5c-.09-.79.18-1.82,0-2.61.25-.08.12-.21.4-.25Z" style="fill:#9c3f2a;"/><path d="M48.35,118.03v2.71h-9.15v-1.21l8.6-.1.05-1.51c.24,0,.48.1.5.1Z" style="fill:#9c3f2a;"/><path d="M47.85,117.93l-.05,1.51-8.6.1v-1.51c2.88.07,5.77-.08,8.65-.1Z" style="fill:#9c3f2a;"/><path d="M100.03,114.51c0,.1,0,.2,0,.3-.24.44-.02,2.71-.2,2.97-.09.12-.9.01-1.11.05.03-.82-.02-1.64,0-2.46-.04-.08-.16-.12-.2-.15v-.8l1.51.1Z" style="fill:#8c2926;"/><path d="M40.81,113.4c-.12,1.68.32,2.04-1.61,1.81v-1.81h1.61Z" style="fill:#d7844f;"/><path d="M98.52,113.3c.07,0,.13,0,.2,0,.43,0,.87,0,1.31,0,0,.4,0,.81,0,1.21l-1.51-.1c0-.16.05-.84-.05-.9l-1.26.1c-.03-.09-.09-.12-.1-.2.23-.25.94-.1,1.41-.1Z" style="fill:#6f1e12;"/><path d="M100.03,80.73c.02.67-.02,1.34,0,2.01-.25-.18.02-.99-.15-1.11-.09-.06-.95.04-1.16,0v-.8c.44,0,.88.05,1.31-.1Z" style="fill:#ac3432;"/><path d="M100.03,113c0,.1,0,.2,0,.3-.43,0-.87,0-1.31,0,.05-.38.91-.11,1.31-.3Z" style="fill:#bc6437;"/><path d="M83.04,81.64s.07,0,.1,0c-.27.52.22,2.29,0,2.66-.07.12-.34-.02-.4.1-.1.17.31,3.64.05,3.97h-7.74l-.25.5c-.36,1.47.34,4.25-.1,5.88.16.28.29.05.3.05.28.05.81.09,1.11.1.12.58-.03.7.5,1.11-.34.12-.26,1.01-.05,1.11.29.13,5.47.09,6.28.1.24.47-.29.9-.3.96-.22,1.2.58,2.23-.9,2.87-1.07.59-2.55,2.45-2.92,3.62-.92,1.55-.58,4.14.1,5.78,1.98,4.79,8.18,6.69,12.26,3.37.32.78-.43,2.65.8,2.31v.1s-.07,0-.1,0c-.23,0-.47,0-.7,0-2.89.03-5.77,0-8.65,0-.64,0-1.27,0-1.91,0l-8.04-.15c.03-5.99-.02-12.03,0-18.05.02-5.46.04-10.93.2-16.39,3.32,0,6.64-.02,9.95,0,.14,0,.27,0,.4,0Z" style="fill:url(#uuid-cb22edf2-5e0f-4ee6-96f9-a70ffb298c0c);"/><path d="M97.11,81.74l-.1,26.04c-.28.04-.15.17-.4.25.18.8-.09,1.83,0,2.61,0,.04.33-.02.4.5s-.03,1.21,0,1.76c.01.25-.1.43-.1.45,0,.08.2.04.2.05.01.08.07.11.1.2,0,.02-.37-.04-.15.3,1.2-.21.96.35,1.26,1.21-.2-.05-3.12-.07-3.27,0-.31.14-.03.99-.2,1.11-.12.09-2.56,0-2.97,0v-3.22c1.78-2.06,2.17-5.12.9-7.54.57-.24.31-.46.1-.85-.43-.81-1.65-1.74-2.41-2.26-.23-.15-1.11-.86-1.26-.9-.3-.09-.18.26-.5.2-.22-.04-1-.95-1.11-1.01-1.48-.8-4.53-.41-5.98.4,1.49-.63.69-1.66.9-2.87,0-.05.54-.48.3-.96.76,0,5.83-.28,6.08-.1.16.44-.07,3.19.1,3.32.03.03.31.02.35-.05.09-.13.15-3,.1-3.17l5.03-.15c-.15-.86.11-6.85-.1-7.14-.07-.1-1.55-.05-1.81-.05-.02-.25.1-1.09-.15-1.21-.95-.01-1.91.01-2.87,0l.1-6.99c.13-.22,1.87.08,2.16-.05s.08-.63.15-.8c.02-.04,0-.12.1-.1.25.19-.09.81.15.9s4.16.07,4.88.1Z" style="fill:url(#uuid-1517c64b-650b-4671-bc7d-e6d3122a7d9a);"/><path d="M43.33,76.01c3.22.02,6.44,0,9.65,0,4.05,0,8.11,0,12.16,0,1.91,0,3.83,0,5.73,0,9.27,0,18.57.1,27.85,0v2.31c-6.84-.31-14.12,0-21.01,0-1.67,0-3.35,0-5.03,0-2.61,0-5.23,0-7.84,0s-5.3.02-7.94,0c-2.85-.02-5.7-.06-8.55-.1-2.54-.04-5.1-.18-7.64,0l-.1-.2c.47-.5.03-1.4.2-2.01.84,0,1.68,0,2.51,0Z" style="fill:url(#uuid-d7973039-49fc-4797-81ab-06c4c24a0e6b);"/><path d="M77.71,78.32v2.41c-1.4,0-3.47-.02-4.83.1-.45-.74-.3-1.67-.2-2.51,1.67,0,3.35,0,5.03,0Z" style="fill:#8c2926;"/><path d="M91.98,80.83c-.07.17.13.68-.15.8s-2.03-.17-2.16.05l-.1,6.99c-.1,0-.2,0-.3,0l.1-6.99c-2.07-.1-4.16-.04-6.23-.05-.03,0-.07,0-.1,0l.15-.9,8.8.1Z" style="fill:#ac3432;"/><path d="M72.88,80.83c1.36-.12,3.42-.11,4.83-.1,1.65.01,3.33.28,4.98,0l-.05.9c-3.32-.02-6.64,0-9.95,0-.13,0-.27,0-.4,0,.02-.25-.01-.5,0-.75.08-.2.41-.03.6-.05Z" style="fill:#bd4835;"/><path d="M98.72,80.83v2.31c-.68.05-.26-1.37-.45-1.51-.17-.12-1.01.11-1.16.1-.72-.03-4.65-.01-4.88-.1s.1-.71-.15-.9c2.2.16,4.43.13,6.63.1Z" style="fill:#ac3432;"/><path d="M82.53,117.93l.1,1.61c-3.47.01-6.94,0-10.4,0l-.2,1.11c-7.89-.02-15.78.1-23.67.1v-1.11c2.94-.19,5.91-.08,8.85-.1.91,0,6.89.2,7.19,0,.14-.1-.09-.51.2-.5.34.08.21.45.3.5.3.15,6.46.19,6.74,0,.13-.09,0-1.35.05-1.61,3.61-.02,7.24.01,10.86,0Z" style="fill:#8c2926;"/><path d="M98.32,115.11s.19.09.2.1c.05.04.16.07.2.15-.02.82.03,1.65,0,2.46-.01.31.08,1.61-.15,1.71-5.31.01-10.63-.02-15.93,0l-.1-1.61c.13,0,.27,0,.4,0,2.54-.01,5.8.25,8.24,0,1.18-.12.66-.69.6-1.71.03,0,.07,0,.1,0,.41,0,2.84.09,2.97,0,.17-.12-.11-.97.2-1.11.15-.07,3.07-.05,3.27,0Z" style="fill:#8c2926;"/><path d="M47.95,81.64c.02.11-.05.32.05.4.6.11.1-.29.3-.4.61-.34,7.04.26,8.24,0l.15,2.26c-.63.21-1.64-.21-2.01.25-.13.16-.08.13-.1.3-.16-.1-.17-.39-.2.05-.08,1.03.39,1.23-.8,1.26-.01-.15.05-.63-.05-.7-.03-.02-.72-.05-.85,0h-.1c-.02-.24-.03-.28-.1-.5-.05-.15.08-.39-.15-.5-.49-.23-4.72.33-5.63.1l.05,5.33c-.02.39.21.78.2,1.01,0,.04-.17-.06-.2.6,0,.03-.2.61-.2.65-.07,1.58.16,3.14.1,4.72l.2.05c.19-.1.54.1.6.1v.1c-1.07-.08-.47.31-.5.8,0,.12-.35.44-.1.7-.16.05-.24.06-.3.25-.31.99.11,3.88.2,4.98,0,.1,0,.2,0,.3.01.14.19.56.2.7.03.31-.35,1-.1,1.46.13.11,1.32.04,1.61.05,1.7.07,3.43-.01,5.13,0,.02.5-.03,1.01,0,1.51-.34.09-.69-.08-1.01-.1.03-.12-.08-.47-.15-.5-.24-.12-4.93-.07-5.38,0-.11.02-.24-.01-.35,0-.29.18-.16,4.68-.05,5.33.04.23-.03.52,0,.75.16.24.39.12.6.15-.1.23.1.69.1.8,0,.14-.21.64-.1.85.14.27,2.13.04,2.51.05,1.65.04,3.28-.02,4.93,0,.58,0,1.18.06,1.76.1.15.07.05,1.17,0,1.21-.31.22-6.64.1-7.59.1-1.95.01-3.92,0-5.88,0-.3-2.2.9-3.3-2.16-2.92.35-5.75.16-13.57-.1-19.4.05-3.38.14-6.78.1-10.15,2.65.18,1.76-.07,2.16-2.21l4.98.1Z" style="fill:url(#uuid-c819c234-2f41-4669-a5d0-5a329d22a3a7);"/><path d="M64.84,116.22c.04.26-.08,1.52.05,1.61.27.19,6.36.19,6.63,0,.13-.09,0-1.35.05-1.61,2.97,0,5.97,0,8.95,0,.64,0,1.27,0,1.91,0,.11.71-.35,1.55.5,1.71-.13,0-.27,0-.4,0-3.62.01-7.25-.02-10.86,0-.92,0-6.99-.21-7.29,0-.16.11.06,1.4-.1,1.51-.33.24-6.19-.25-7.09.1-2.94.02-5.91-.09-8.85.1v-1.61c2.84-.02,5.7-.06,8.55-.1.96-.01,7.09.11,7.39-.1.13-.09,0-1.35.05-1.61.17,0,.33,0,.5,0Z" style="fill:#9c3f2a;"/><path d="M64.34,116.22c-.04.26.08,1.52-.05,1.61-.3.21-6.43.09-7.39.1-.15-.54.1-1.13.1-1.61,2.44,0,4.9-.1,7.34-.1Z" style="fill:#b2552f;"/><path d="M54.99,113.91c.15-.04.5,0,.7,0,.25.28,1.07.63,1.21,1.01.03.07.1,1.22.1,1.41-2.71,0-5.43-.19-8.14-.1.95,0,7.28.12,7.59-.1.05-.03.15-1.13,0-1.21-.58-.04-1.18-.09-1.76-.1.05-.45-.2-.77.3-.9Z" style="fill:#bc6437;"/><path d="M98.72,83.14c0,8.16.28,16.61,0,24.73-.42.17-.96.1-1.41.1-.32,0-.28-.2-.3-.2l.1-26.04c.15,0,.99-.22,1.16-.1.19.14-.22,1.56.45,1.51Z" style="fill:#ac3432;"/><path d="M98.72,107.98c-.02.52.02,1.04,0,1.56-.04.24-1.37.17-1.41.1-.04-.07-.1-1.45,0-1.66.45,0,.98.07,1.41-.1,0,.03,0,.07,0,.1Z" style="fill:#6f1e12;"/><path d="M48.35,78.22l-.1,2.61h-7.54c-.04-.87.03-1.75,0-2.61,2.54-.18,5.1-.04,7.64,0Z" style="fill:#d16b4f;"/><path d="M47.95,80.83c.03.25-.04.57,0,.8l-4.98-.1c-.41,2.14.49,2.39-2.16,2.21-.01-.98-.06-1.94-.1-2.92h7.24Z" style="fill:#d7844f;"/><path d="M98.52,113.3c-.47,0-1.17-.14-1.41.1,0-.01-.19.03-.2-.05,0-.02.11-.2.1-.45.45-.1,1.25-.04,1.51.4Z" style="fill:#bc6437;"/><path d="M98.52,114.41v.8s-.19-.1-.2-.1c-.29-.86-.05-1.41-1.26-1.21-.22-.34.16-.29.15-.3l1.26-.1c.1.07.05.75.05.9Z" style="fill:#bd4835;"/><path d="M89.27,88.67c-4.75-.08-9.53.06-14.28,0-.05.01-.2.19-.2.2l.25-.5h7.74c.26-.33-.15-3.8-.05-3.97.07-.12.34.02.4-.1.22-.38-.27-2.14,0-2.66,2.08.01,4.16-.05,6.23.05l-.1,6.99Z" style="fill:#c95a4d;"/><path d="M92.79,105.46c1.27,2.42.87,5.48-.9,7.54-.12.14-.67.7-.8.8-4.09,3.32-10.28,1.43-12.26-3.37-.68-1.64-1.02-4.24-.1-5.78-.47,1.49-.41,3.11,0,4.62.59,2.16,2.93,4.41,5.23,4.52.03,0,.07,0,.1,0,5.75.7,9.67-4.63,7.44-9.95.46.58.93.89,1.31,1.61Z" style="fill:#8c2926;"/><path d="M72.48,98.02c-.02,6.01.03,12.05,0,18.05l8.04.15c-2.98,0-5.98,0-8.95,0-2.24,0-4.5,0-6.74,0-.17,0-.34,0-.5,0-2.44,0-4.9.1-7.34.1,0-.19-.08-1.34-.1-1.41h5.48c.45,1.44.39-.03.6-.1.09-.03,1.5.02,1.86,0,.04.23-.08,1.22.05,1.31.27.19,5.91-.15,6.74,0l.1-4.72c.23,0-.06,4.18.05,4.57.06.21.11.21.3.1-.13-6.01.03-12.03.1-18.05h.3Z" style="fill:#c87343;"/><path d="M89.07,96.01c-.33.96.38,1.14.4,1.21.05.17-.01,3.03-.1,3.17-.04.07-.32.08-.35.05-.17-.13.06-2.88-.1-3.32-.25-.18-5.33.11-6.08.1-.82,0-6,.03-6.28-.1-.21-.09-.29-.99.05-1.11.3-.11,5.42-.1,6.23-.1,2.07-.01,4.16.13,6.23.1Z" style="fill:#9c3f2a;"/><path d="M91.08,116.22l.1,1.71c-2.44.25-5.7-.01-8.24,0-.85-.16-.4-1-.5-1.71,2.87,0,5.76.03,8.65,0Z" style="fill:#9c3f2a;"/><path d="M72.68,81.64c-.16,5.46-.18,10.92-.2,16.39h-.3c.06-5.28-.25-11.2.1-16.39.13,0,.27,0,.4,0Z" style="fill:#d7844f;"/><path d="M76.3,94.91c0,.19.06.32.25.4.54.23,3.86.15,4.62.1.35-.02,1.15-.26,1.51-.4l.15.9c-.81,0-5.93,0-6.23.1-.53-.41-.39-.53-.5-1.11.07,0,.13,0,.2,0Z" style="fill:#472541;"/><path d="M91.88,116.12c-1.24.34-.49-1.53-.8-2.31.13-.11.68-.66.8-.8v3.12Z" style="fill:#9c3f2a;"/><path d="M91.78,116.22c.06,1.02.57,1.59-.6,1.71l-.1-1.71c.23,0,.47,0,.7,0Z" style="fill:#8c2926;"/><path d="M89.47,97.22c-.02-.07-.73-.24-.4-1.21,1.05-.01,2.11,0,3.17,0,.16-.06.03-.87.05-1.11l.2-.05c.08-1.63.21-3.33.1-4.98.26,0,1.74-.05,1.81.05.21.29-.05,6.28.1,7.14l-5.03.15Z" style="fill:#8c2926;"/><path d="M92.79,105.46c-.37-.72-.84-1.03-1.31-1.61-.15-.19-.19-.35-.3-.5-.23-.32-.56-.64-.7-1.01.76.52,1.98,1.45,2.41,2.26.21.39.47.61-.1.85Z" style="fill:#9c3f2a;"/><path d="M56.9,78.32l-.1,2.41c-2.84,0-5.7.1-8.55.1l.1-2.61c2.85.04,5.7.08,8.55.1Z" style="fill:#bd4835;"/><path d="M64.84,78.32c.17.79.1,1.61.1,2.41v.8c-.13,0-.27,0-.4,0l-.05-.8c-2.39-.03-4.8.1-7.19.1-.08,0-.11-.1-.3-.1-.07,0-.13,0-.2,0l.1-2.41c2.64.02,5.3,0,7.94,0Z" style="fill:#9c3f2a;"/><path d="M72.68,78.32c-.1.84-.25,1.77.2,2.51-.19.02-.53-.15-.6.05-.01.25.02.51,0,.75-.07,0-.13,0-.2,0-.19-.19-.02-.71-.15-.8-.3-.21-6.15-.01-6.99-.1,0-.8.07-1.63-.1-2.41,2.61,0,5.24,0,7.84,0Z" style="fill:#ac3432;"/><path d="M71.68,117.93c-.04.26.08,1.52-.05,1.61-.27.19-6.44.15-6.74,0-.09-.05.04-.42-.3-.5-.29,0-.06.41-.2.5-.3.2-6.28,0-7.19,0,.9-.35,6.75.14,7.09-.1.16-.11-.06-1.4.1-1.51.3-.21,6.37,0,7.29,0Z" style="fill:#9c3f2a;"/><path d="M54.49,92.8c-.02,1.1.03,2.72.1,3.82.01.17-.03.81,0,.85.1.15.8-.06,1.01.15,0,.04-.2.19,0,.6-.37,0-.64.04-1.01.1-.14.02-.07-.28-.2-.15-.18.86.54,3.17-.8,2.87-.03-.98.44-2.48-.9-2.11h-.1c0-.09-.08-.1-.1-.2-.03-.13.06-.42-.05-.5-1.44.26-4.31-.35-5.58,0-.25-.26.09-.59.1-.7.28.09.59-.1.8-.1,1.88.02,3.79.2,5.68.1.25-.11.16-2.68.15-3.12-.01-.66.36-3.01-.75-2.51l-.05,2.61h-.3c.06-.69,0-1.42,0-2.11,0-.31.11-.57.1-.8,0-.11.04-.35-.05-.4-1.6.02-3.18.02-4.78-.1,0-.2,0-.4,0-.6,0-.03,0-.07,0-.1h5.68c.28-.12.14-1.96.15-2.31,1.05-.22.68.59.7,1.26,0,.04.2.17.2.2s-.3.1-.3.2c-.02.38-.1.66-.1.7-.05.66-.06,1.96.4,2.36Z" style="fill:#bc6437;"/><path d="M54.59,98.32c0,1.75-.04,3.48.1,5.23,0,.04-.21.56-.1.75.02.03.69.14.8.15.1.69.25.62.9.7.18.97-.66.33-.8.8-.64,0-1.27,0-1.91,0-1.7-.01-3.43.07-5.13,0v-.9c.57.07,4.29.23,4.57.1.25-.11.12-.59.15-.8.11-.02.34.05.4-.05.01-.75-.02-1.51,0-2.26,0-.33,0-.67,0-1.01,1.35.3.62-2.01.8-2.87.13-.13.06.17.2.15Z" style="fill:#9c3f2a;"/><path d="M54.49,107.37c-.15.64-.07,3.95,0,4.72.05.49-.04,1.02.5,1.11v.7c-.5.14-.25.46-.3.9-1.64-.02-3.27.04-4.93,0-.09-.13-.75-.78-.8-.8l4.83-.15c.18-.53-.2-.71-.2-.75-.13-1.62.11-3.3.1-4.93,0-.03,0-.07,0-.1l.55.3.25-1.01Z" style="fill:#9c3f2a;"/><path d="M57,80.73c-.01,1.03-.34,2.38.1,3.32-.78,0-1.61.2-2.41.1.37-.46,1.38-.04,2.01-.25l-.15-2.26c-1.2.26-7.64-.34-8.24,0-.21.11.3.51-.3.4-.1-.08-.03-.29-.05-.4-.04-.24.03-.55,0-.8h.3c2.85,0,5.71-.1,8.55-.1.07,0,.13,0,.2,0Z" style="fill:#d7844f;"/><path d="M55.49,105.97c1.91,0,3.82,0,5.73,0,.02.5-.02,1.01,0,1.51l-.8.1c-.02-.16-.08-.39-.2-.5-.52-.49-4.67-.05-5.58-.2-.13.04-.12.39-.15.5l-.25,1.01-.55-.3c0-.26-.09-.47-.1-.6-.03-.5.02-1.01,0-1.51.64,0,1.27,0,1.91,0Z" style="fill:#bc6437;"/><path d="M48.05,113.1c1.83.09,3.69-.07,5.53,0,0,.05.38.22.2.75l-4.83.15c-.42-.16-1.16-.07-1.61-.1,0-.11-.2-.58-.1-.8.24.03.55-.01.8,0Z" style="fill:#7a3a34;"/><path d="M54.59,84.45c-.14.93-.11,4.05,0,5.03.02.2.09.93.25,1.01.23.1.63-.1.75-.1.03.26-.02.54,0,.8-.23.01-.88-.06-1.01.05-.12.52-.09,1.03-.1,1.56-.47-.4-.45-1.71-.4-2.36,0-.04.08-.33.1-.7,0-.1.3-.17.3-.2s-.2-.16-.2-.2c-.02-.67.34-1.47-.7-1.26,0-.07,0-.13,0-.2,0-.66.06-1.47,0-2.11,1.19-.03.73-.22.8-1.26.03-.44.04-.15.2-.05Z" style="fill:#c87343;"/><path d="M48.96,114.01c.05.02.72.67.8.8-.38,0-2.37.22-2.51-.05-.11-.21.1-.72.1-.85.45.03,1.19-.06,1.61.1Z" style="fill:#bc6437;"/><path d="M47.65,104.46c.03.17-.08.59-.05.6.09.05.66-.03.85,0v.9c-.29-.01-1.48.06-1.61-.05-.25-.46.13-1.15.1-1.46.23-.02.47.02.7,0Z" style="fill:#bc6437;"/><path d="M46.95,90.48h.8c0,.2,0,.4,0,.6-.33-.02-.67.02-1.01,0,.03-.66.2-.57.2-.6Z" style="fill:#d7844f;"/><path d="M71.58,116.22c-.04.26.08,1.52-.05,1.61-.27.19-6.36.19-6.63,0-.13-.09,0-1.35-.05-1.61,2.24,0,4.49,0,6.74,0Z" style="fill:#b2552f;"/><path d="M64.84,114.81c-.36.02-1.77-.03-1.86,0-.21.07-.15,1.54-.6.1h-5.48c-.14-.37-.95-.72-1.21-1.01.86-.03,6.28-.13,6.58,0,.33.14-.04.73.3.8.51.11-.21-1.89.85-1.61.23,0,.47,0,.7,0,.03.15.1.77.15.8.21.15,4.49-.11,5.13,0l-.35-4.62c0-.32.03-.83,0-1.11,0-.03,0-.07,0-.1.23.16.85.04.96.1.16.09.62,3.24.65,3.67.08.92-.01,1.89.1,2.81-.13.28-5.22.12-5.93.15Z" style="fill:#9c3f2a;"/><path d="M60.62,113c.43,0,.91.1,1.31.1.33,0,.67,0,1.01,0,.03,0,.07,0,.1,0,.13,0,.27,0,.4,0-1.06-.28-.35,1.72-.85,1.61-.34-.07.02-.66-.3-.8-.3-.13-5.73-.03-6.58,0-.2,0-.55-.04-.7,0v-.7s.48-.2.5-.2c.28.02.24.3.35.3.23,0,.12-.2.2-.2,1.53.01,3.06-.1,4.57-.1Z" style="fill:#8c2926;"/><path d="M57.3,80.83c.03.18-.07.72.05.8.29.21,6.3-.1,7.19-.1.13,0,.27,0,.4,0,2.37.01,4.76.1,7.14.1.07,0,.13,0,.2,0-.35,5.19-.04,11.11-.1,16.39-.07,6.01-.23,12.03-.1,18.05-.19.1-.24.11-.3-.1-.11-.39.18-4.57-.05-4.57l-.1,4.72c-.83-.15-6.46.19-6.74,0-.13-.09-.01-1.08-.05-1.31.71-.03,5.8.13,5.93-.15-.12-.93-.03-1.89-.1-2.81-.03-.43-.49-3.58-.65-3.67-.11-.06-.73.06-.96-.1-.14-.78-.66-.77-.7-.1-.03-.02-.14,0-.2,0-.03-.16-.23-.44-.4-.5.01-.03,0-.07,0-.1,0-.02.25-.23.2-.35-.22-.34-.34-.13-.7-.15l-.35-.3c.72-.02,1.44-.09,2.16-.1s1.45.21,2.16.1c.44-.19.19-8.48.15-9.5-.06-1.78-.33-10.11-1.41-11.06-.31-.28-.6-.03-.9-.35-.03-.18.08-.5-.15-.6-.08-.03-.5,0-.65,0h-.2c-.02-.18-.06-.54-.1-.7-.02-.09.05-.25-.05-.3-.91.13-5.65-.31-5.98.35-.04.08.02.41,0,.55-.31-.1-.28.19-.4.2-.07,0-.69-.21-.9-.1-.01-.1-.1-.11-.1-.2.01-.24.2-.68-.05-.8-1.11.15-2.26-.01-3.37,0-.44-.93-.11-2.29-.1-3.32.19,0,.22.1.3.1Z" style="fill:url(#uuid-433eaf7b-baba-40d2-987b-d70ad083e4f9);"/><path d="M64.54,81.54c-.89,0-6.89.31-7.19.1-.12-.08-.02-.63-.05-.8,2.39,0,4.8-.13,7.19-.1l.05.8Z" style="fill:#d16b4f;"/><path d="M72.08,81.64c-2.38,0-4.77-.09-7.14-.1v-.8c.83.09,6.69-.11,6.99.1.13.09-.04.62.15.8Z" style="fill:#d16b4f;"/><path d="M61.93,84.95c-.04.33,0,.76,0,1.11,0,1.07.21,2.18.1,3.27.07.11.3.01.4.05v.2c-.11,0-.35-.04-.4.05v.7c.07.1.64.04.8.05.28.63-.09.41-.3.8-.21.03-.45-.09-.6.15,0,.69,0,1.38,0,2.06,0,1.02.08,2.09.1,3.12,0,.33-.03.68,0,1.01.04.39-.35.4.45.5.05,0,.21-.44.55.1-.2.02-1.04.11-1.11.25,0,.49,0,.97,0,1.46,0,.07,0,.13,0,.2l-.3-.2s0-.07,0-.1c-.01-.17.05-.73-.05-.8-.03-.03-.61.03-.85,0-.1-.01-.2,0-.3,0,0-.1.02-.21,0-.3-.03-.18.08-.36-.15-.5-1.56.15-3.12.07-4.67.1-.2-.41,0-.57,0-.6,0-.03,0-.07,0-.1h5.88c.18-.93.15-1.87.15-2.81,0-.34.06-2.45,0-2.56-.14-.29-.76-.09-1.01-.15,0,0,.02-.12-.1-.1-.02-.16.06-.63-.05-.7-1.62.08-3.26-.1-4.88,0-.02-.26.03-.54,0-.8,1.96.01,3.92-.01,5.88,0,.1-.07.04-1.99.05-2.31.02-.72.07-1.49,0-2.21-.02-.23.02-.47,0-.7.12-.01.09-.3.4-.2Z" style="fill:#b2552f;"/><path d="M52.58,91.59c.01.23-.1.49-.1.8l-4.72,4.12c-.19,0-.23.11-.3.1-.06,0-.41-.2-.6-.1l.35-4.93h5.38Z" style="fill:#fee3ae;"/><path d="M47.75,97.42l-.3-.7v-.1c.08,0,.11-.11.3-.1.87.03,4.42-.11,4.72-1.06.06-.18-.02-.7,0-.96h.3c.27,0,.56.06.8-.1,0,.43.1,3.01-.15,3.12-1.89.1-3.8-.08-5.68-.1Z" style="fill:#b68474;"/><path d="M47.75,91.09c1.59.12,3.18.12,4.78.1.09.05.04.29.05.4h-5.38l-.35,4.93-.2-.05c.06-1.58-.17-3.15-.1-4.72,0-.04.2-.62.2-.65.33.02.67-.02,1.01,0Z" style="fill:#fcf8ed;"/><path d="M47.45,96.72l.3.7c-.21,0-.53.19-.8.1.03-.5-.56-.88.5-.8Z" style="fill:#e5bb9a;"/><path d="M52.48,92.39c0,.69.06,1.42,0,2.11-.02.25.06.78,0,.96-.31.94-3.85,1.09-4.72,1.06l4.72-4.12Z" style="fill:#ecdabb;"/><path d="M53.58,94.4c-.25.16-.53.1-.8.1l.05-2.61c1.12-.5.74,1.85.75,2.51Z" style="fill:#c79c89;"/><path d="M61.93,100.03c0,1.14.13,2.29.2,3.42.02.27-.15.51-.1.85.01.08.2.04.2.05.05.27-.27.47.05.7,1.12-.14,5.37.44,6.13.1.23-.1.19-.61.05-.8.14-.02.31.01.45,0,.11-.08.01-.3.05-.4.75.07.24,1.31.5,1.86-.02.06-.38.25-.4.25-1.14.23-5.59-.11-7.14-.1-.23,0-.47,0-.7,0-1.91,0-3.82,0-5.73,0,.14-.47.99.16.8-.8.43.05,4.27.09,4.47,0,.23-.1.13-.5.15-.7.11-.01.65-.14.7-.25.12-.73-.12-1.56-.1-2.26s.15-1.39.1-2.11l.3.2Z" style="fill:#9c3f2a;"/><path d="M53.18,104.36c-.03.21.1.69-.15.8-.28.13-4-.03-4.57-.1-.19-.03-.77.05-.85,0-.03-.01.08-.43.05-.6,1.69-.17,4.1.17,5.53-.1Z" style="fill:#6f1e12;"/><path d="M60.22,104.36c.24-.01.67.1.7.1-.02.2.08.6-.15.7-.2.09-4.05.05-4.47,0-.66-.08-.81-.02-.9-.7.25.01.19-.1.2-.1,1.46.06,3.16.06,4.62,0Z" style="fill:#6f1e12;"/><path d="M61.22,107.47c.03.6.07,1.21.1,1.81.02.4-.03.81,0,1.21-.34.41-.44.46-1.01.4.02-.88.19-2.57.1-3.32l.8-.1Z" style="fill:#ab8b8a;"/><path d="M61.93,105.97c-.1.3.1.79.1,1.01.01,1.02-.21,2.16-.1,3.22-.05-.45-.03-1.35-.6-.9-.03-.6-.07-1.21-.1-1.81-.02-.5.02-1.01,0-1.51.23,0,.47,0,.7,0Z" style="fill:#b2552f;"/><path d="M52.68,98.93c.2.79-.61,4.11.9,3.12-.02.75.01,1.51,0,2.26-.06.1-.29.03-.4.05-1.43.27-3.84-.07-5.53.1-.1-.7.1-1.03-.9-.7,0-.1,0-.2,0-.3h.1c.97.04,1.94,0,2.92,0,.77,0,1.57.19,2.36.1.47-.37.22-.97.25-1.31.09-.95.13-1.86.1-2.81,0-.25.1-.48.1-.5h.1Z" style="fill:#b68474;"/><path d="M52.48,98.73l-5.38-.1-.15,4.72c-.08,0-.11.01-.1.1h-.1c-.09-1.1-.51-3.99-.2-4.98.06-.19.14-.21.3-.25,1.27-.35,4.14.26,5.58,0,.11.08.02.37.05.5Z" style="fill:#fefdfe;"/><path d="M47.65,104.46c-.23.02-.47-.02-.7,0-.01-.14-.19-.56-.2-.7,1-.33.8,0,.9.7Z" style="fill:#e5bb9a;"/><path d="M52.48,98.73c.02.1.09.11.1.2,0,.03-.11.25-.1.5-1.51.65-3.31,3.04-4.57,3.72-.32.17-.62.16-.96.2l.15-4.72,5.38.1Z" style="fill:#fee3ae;"/><path d="M53.58,101.04c0,.33,0,.67,0,1.01-1.52.99-.7-2.33-.9-3.12,1.34-.37.88,1.13.9,2.11Z" style="fill:#c79c89;"/><path d="M52.48,99.43c.03.95,0,1.87-.1,2.81-.28.1-.65.72-.85.8-.37.15-1.45-.03-1.76.4-.97,0-1.95.04-2.92,0-.01-.09.03-.09.1-.1.34-.04.63-.03.96-.2,1.26-.68,3.06-3.07,4.57-3.72Z" style="fill:#ecdabb;"/><path d="M49.76,103.45c.31-.44,1.39-.25,1.76-.4.21-.08.57-.7.85-.8-.03.33.22.93-.25,1.31-.79.09-1.59-.1-2.36-.1Z" style="fill:#c79c89;"/><path d="M52.48,84.55c.07.22.08.27.1.5,0,.1,0,.2,0,.3l-4.62,4.12c-.3.03-.55-.14-.8.05,0,.24.51-.08.6.85,0,.03,0,.07,0,.1h-.8c0-.23-.22-.62-.2-1.01.01-.18.2-.5.2-.55.03-.58-.13-4.25.15-4.37h5.38Z" style="fill:#fee3ae;"/><path d="M52.68,85.66c0,.97-.41,2.62.9,2.21,0,.07,0,.13,0,.2,0,.35.13,2.19-.15,2.31h-5.68c-.1-.93-.6-.61-.6-.85.26-.19.5-.02.8-.05.17-.02.3-.08.5-.1l3.67.3c.45-.31.22-.87.25-1.11.11-.94.23-2.28.2-3.22,0-.1,0-.2,0-.3h.1v.6Z" style="fill:#b68474;"/><path d="M52.48,84.55h-5.38c-.28.13-.12,3.79-.15,4.37,0,.05-.19.37-.2.55l-.05-5.33c.91.22,5.14-.33,5.63-.1.24.11.1.35.15.5Z" style="fill:#fdf6d9;"/><path d="M53.58,85.76c-.32,0-.6-.04-.9-.1v-.6c.14-.05.82-.02.85,0,.1.07.04.55.05.7Z" style="fill:#fdcb99;"/><path d="M52.58,85.36c.03.94-.09,2.27-.2,3.22-1.12.8-2.6.66-3.92.8-.2.02-.33.08-.5.1l4.62-4.12Z" style="fill:#edceac;"/><path d="M53.58,85.76c.06.64,0,1.45,0,2.11-1.32.41-.9-1.25-.9-2.21.31.06.59.11.9.1Z" style="fill:#c79c89;"/><path d="M48.46,89.38c1.32-.15,2.8,0,3.92-.8-.03.23.2.79-.25,1.11l-3.67-.3Z" style="fill:#c79c89;"/><path d="M64.14,113.1c1.2,0,2.42.02,3.62,0,.35,0,.7.09,1.06.1.24-.16.13-.39.15-.6.1-1.02.11-2.29.1-3.32l.35,4.62c-.64-.11-4.92.15-5.13,0-.05-.03-.12-.65-.15-.8Z" style="fill:#8c2926;"/><path d="M68.36,107.98c.2.12.25.31.7.2.03.27,0,.78,0,1.11.01,1.03,0,2.3-.1,3.32-.93.21-.52-.85-.6-1.71s-.04-2.07-.2-2.92c.06,0,.17-.02.2,0Z" style="fill:#8f564a;"/><path d="M63.94,112.6c.19.2.15.28.2.5-.23,0-.47,0-.7,0-.13,0-.27,0-.4,0-.12-.79.55-.38.9-.5Z" style="fill:#7194a3;"/><path d="M69.06,108.08s0,.07,0,.1c-.45.11-.5-.08-.7-.2.05-.67.57-.68.7.1Z" style="fill:#dba788;"/><path d="M62.03,112.7c-.02.11-.17.21-.1.4-.4,0-.87-.1-1.31-.1-.31.14-.48-.19-.5-.2.34-.52.18-1.28.2-1.91.57.06.67.01,1.01-.4,0,.01.19.07.2.15.05.56-.35,2.19.5,2.06Z" style="fill:#7f636a;"/><path d="M62.93,113.1c-.33,0-.67,0-1.01,0-.07-.19.09-.29.1-.4.01-.1,0-.2,0-.3.63.07.98-.18.9.7Z" style="fill:#7194a3;"/><path d="M82.74,110.19c-1.03,1.03-1.15,1.16.2,1.81,1.2.58,2.63.71,3.92.4.37,1.2.54.52,1.36.3.14-.04.18.13.25.1-1.21.8-2.95.81-4.37.8-.08,0-.04.2-.05.2-.03,0-.07,0-.1,0l-3.82-2.56c.14-.42.2.18.45.15.81-.11,2.16-2.19,2.97-2.81.07-.05.95-.76.9-.45l-1.71,2.06Z" style="fill:#171841;"/><path d="M84.95,106.97c-.47.45-1.06,1.06-1.41,1.61-.81.62-2.15,2.71-2.97,2.81-.25.03-.31-.57-.45-.15l3.82,2.56c-2.3-.12-4.64-2.37-5.23-4.52.3-.18.65.24.8.45.1.14-.22.18-.2.2.05.08.42.16.5.25.06.07-.25.38.15.4.89-1,1.9-1.9,2.87-2.81.23.14-1.7,1.59-1.06,1.51.57-.46,1.22-1.22,1.81-1.61.11-.07.28.21.3.2.34-.2.61-.82,1.06-.9Z" style="fill:#7891ad;"/><path d="M91.48,103.85c2.23,5.32-1.69,10.65-7.44,9.95.01,0-.03-.2.05-.2,1.43,0,3.16,0,4.37-.8.58-.22.94-.5,1.31-1.01,1.68-1.55,2.41-3.93,2.01-6.18-.11-.61-.58-1.27-.7-1.76,0-.02.06-.44.1-.5.11.15.15.32.3.5Z" style="fill:#d0b799;"/><path d="M91.08,103.85c.12.48.6,1.15.7,1.76.4,2.25-.33,4.63-2.01,6.18.12-.16.35-.48.35-.7-.51.46-.61.96-1.06.1.17-.15.44-.51.6-.7,1.21-1.49,2.1-4.96.7-6.48-.68-.75-.93.09-1.21.25-.52.31-.52.27-1.01.7-.32.29-.59.7-.9,1.01-1.39,1.36-2.83,2.67-4.22,4.02-.05.05-.25.15-.3.2l1.71-2.06c.04-.31-.83.4-.9.45.35-.55.94-1.16,1.41-1.61.11-.1.2-.2.3-.3,1.05-1.03,2.19-1.97,3.12-3.12,1.07.13.76-.18,1.46-.3.5-.09,1.07.08,1.26.6Z" style="fill:#522f58;"/><path d="M84.55,103.25c-1.17.22-2.73,1.65-3.12,2.81-.32-.79-.77.05-1.41-.2.47-2.46,2.72-4.17,5.18-4.12.46.17-.76,1.2-.65,1.51Z" style="fill:#c1cddf;"/><path d="M86.66,103.65c-1.69,1.75-3.45,3.41-5.18,5.13-.16-2.44,2.08-4.09,3.67-5.63.4.01,1.18.23,1.51.5Z" style="fill:#c1cddf;"/><path d="M87.46,103.45c-.11.21-2.94,2.75-3.42,3.22-.39.38-.81.73-1.21,1.11-.97.92-1.98,1.81-2.87,2.81-.4-.03-.09-.33-.15-.4.07-.25.33-.28.5-.4.11-.08.19-.09.3-.2,1.18-1.15.38-1.98.7-3.32,0-.01.05-.04.1-.2.39-1.16,1.94-2.59,3.12-2.81.1-.02.57-.1.6-.1-1.59,1.54-3.83,3.19-3.67,5.63,1.72-1.72,3.49-3.37,5.18-5.13.03-.03.46-.09.7-.45.13-.19.07-.55.25-.75.13.31,0,.73-.15,1.01Z" style="fill:#fefdfe;"/><path d="M88.37,103.55c-.93,1.15-2.07,2.09-3.12,3.12h-1.21c.48-.47,3.3-3.01,3.42-3.22.31-.05.6.06.9.1Z" style="fill:#afb3c5;"/><path d="M81.43,106.07c-.05.16-.1.19-.1.2-.53.3-.97.79-1.41,1.21-.04-.55,0-1.07.1-1.61.64.25,1.09-.59,1.41.2Z" style="fill:#c1cddf;"/><path d="M80.62,109.58c-.12.11-.19.13-.3.2-.41-.1-1.18-1.66-1.11-1.86.01-.04.55-.3.7-.45.04.62.22,1.67.7,2.11Z" style="fill:#c1cddf;"/><path d="M90.48,102.35c.14.36.47.69.7,1.01-.04.06-.11.48-.1.5-.19-.52-.75-.69-1.26-.6-.7.12-.39.43-1.46.3-.3-.04-.59-.15-.9-.1.15-.28.28-.69.15-1.01-.18.2-.12.56-.25.75-.25.37-.67.42-.7.45-.33-.28-1.11-.49-1.51-.5-.03,0-.51.08-.6.1-.1-.31,1.12-1.34.65-1.51-2.46-.05-4.71,1.66-5.18,4.12-.1.54-.14,1.06-.1,1.61-.16.15-.69.41-.7.45-.07.2.7,1.76,1.11,1.86-.17.12-.43.15-.5.4-.09-.09-.45-.17-.5-.25-.02-.03.3-.06.2-.2-.15-.21-.51-.63-.8-.45-.41-1.51-.47-3.14,0-4.62.37-1.17,1.85-3.02,2.92-3.62,1.45-.81,4.51-1.2,5.98-.4.1.06.89.97,1.11,1.01.33.06.2-.29.5-.2.14.04,1.03.75,1.26.9Z" style="fill:#a996a4;"/><path d="M87.41,101.14c.12-.02.41.54.2.7-.17.13-.55-.64-.2-.7Z" style="fill:#6b4558;"/><path d="M89.97,107.77c-.02.95-.1,1.8-.3,2.71-.16.2-.43.55-.6.7-.51.45-1.55,1.05-2.21,1.21-1.3.31-2.72.18-3.92-.4,1.93.66,1.87.01,2.21-1.71,2.05-.13,3.43-1.53,3.42-3.62l1.41,1.11Z" style="fill:#657a9a;"/><path d="M85.15,110.29c-.34,1.72-.28,2.37-2.21,1.71-1.35-.65-1.23-.78-.2-1.81.05-.05.25-.15.3-.2.56.37,1.46.34,2.11.3Z" style="fill:#37719e;"/><path d="M89.77,111.8c-.37.5-.73.78-1.31,1.01-.07.03-.12-.14-.25-.1-.82.22-.99.89-1.36-.3.66-.16,1.7-.76,2.21-1.21.44.86.54.36,1.06-.1,0,.23-.23.54-.35.7Z" style="fill:#36214b;"/><path d="M85.25,106.67c-.1.1-.2.2-.3.3-.45.09-.72.7-1.06.9-.02.01-.2-.27-.3-.2-.59.39-1.24,1.15-1.81,1.61-.65.09,1.28-1.37,1.06-1.51.39-.37.82-.73,1.21-1.11h1.21Z" style="fill:#7891ad;"/><path d="M88.57,106.67c0,2.09-1.37,3.49-3.42,3.62-.65.04-1.55.07-2.11-.3,1.39-1.35,2.83-2.66,4.22-4.02.4.12,1.14.54,1.21-.1.03.22.1.61.1.8Z" style="fill:#94a2b7;"/><path d="M89.67,110.49c.2-.92.28-1.77.3-2.71.02-1.21.03-2.55-.8-3.52.27-.16.52-1,1.21-.25,1.39,1.53.51,5-.7,6.48Z" style="fill:#97849d;"/><path d="M89.17,104.26c.83.97.83,2.31.8,3.52l-1.41-1.11c0-.19-.07-.59-.1-.8-.04-.25-.06-.79-.3-.9.48-.44.49-.39,1.01-.7Z" style="fill:#746283;"/><path d="M88.47,105.86c-.07.64-.81.23-1.21.1.31-.3.58-.72.9-1.01.24.11.26.65.3.9Z" style="fill:#a5a3af;"/><path d="M81.33,106.27c-.33,1.34.47,2.17-.7,3.32-.49-.44-.66-1.49-.7-2.11.43-.42.88-.91,1.41-1.21Z" style="fill:#94a2b7;"/><path d="M69.06,106.47v-.4s.38-.19.4-.25c-.27-.55.25-1.79-.5-1.86.18-.56.08-1.14.1-1.71.03-.86.06-1.77-.1-2.61-.03-.16.06-.62-.05-.7-.08-.06-.86.04-1.06,0,.01-.09.01-.22,0-.3-.02-.13.05-.43-.05-.5-1.53.11-3.27-.15-4.78,0-.34-.54-.5-.09-.55-.1-.8-.11-.42-.11-.45-.5h6.89c0-1.37.24-2.75.15-4.12-.06-.86.14-1.79-1.11-1.41-.03-.17.06-.72-.05-.8-1.69.15-3.73-.21-5.38,0,.22-.4.58-.17.3-.8.07,0,.14,0,.2,0,1.95.11,3.93-.08,5.88,0,.2-.12.2-4.11.15-4.62,0-.03,0-.07,0-.1.3.32.59.08.9.35,1.08.95,1.35,9.28,1.41,11.06.03,1.02.28,9.31-.15,9.5-.71.11-1.48-.11-2.16-.1Z" style="fill:#9c3f2a;"/><path d="M69.06,106.07v.4c-.72.01-1.44.09-2.16.1l.35.3c-1.72-.1-3.51,0-5.23.1,0-.21-.2-.7-.1-1.01,1.55,0,5.99.33,7.14.1Z" style="fill:#bc7050;"/><path d="M68.96,99.63c-.64.15-.54-.25-.9-.45-.02.72.03,1.44,0,2.16-.01.27.02.54,0,.8-.58-.09-.71.71-1.16.9-.86.38-2.62.04-3.57.4-.17,0-.34,0-.5,0-.25,0-.44.08-.7,0-.07-1.13-.2-2.28-.2-3.42,0-.07,0-.13,0-.2.31-.04.33.34.4.6.27.98.69,1.7,0,2.76.59.76,3.05-2.01,3.57-2.46.59-.52,1.85-.94,1.96-1.81.19.04.97-.06,1.06,0,.11.08.02.54.05.7Z" style="fill:#ecdabb;"/><path d="M63.03,98.12c1.51-.15,3.24.11,4.78,0,.1.07.03.37.05.5l-5.18-.1c-.43.22.39,1.87-.35,1.91-.07-.26-.09-.64-.4-.6,0-.48,0-.97,0-1.46.06-.14.91-.23,1.11-.25Z" style="fill:#fefdfe;"/><path d="M60.52,92.09c0,.2-.1.22-.1.3-.63.66-4.42,3.22-4.62,3.77-.16.44.6.11.7.35-.43.05-.77.09-1.21.05.28.37.25.54.3.96,0,.03,0,.07,0,.1-.21-.21-.9,0-1.01-.15-.03-.05.01-.69,0-.85.25.03.42.02.5-.25.2-.63-.26-4.69.15-4.88.84.15,4.49-.15,5.03.1.25.12.05.43.25.5Z" style="fill:#fee3ae;"/><path d="M55.59,91.19c1.61-.1,3.26.08,4.88,0,.11.08.03.55.05.7,0,.06,0,.14,0,.2-.2-.07,0-.39-.25-.5-.54-.25-4.19.05-5.03-.1-.41.18.04,4.25-.15,4.88-.08.27-.25.28-.5.25-.08-1.1-.12-2.72-.1-3.82,0-.53-.02-1.04.1-1.56.12-.11.78-.04,1.01-.05Z" style="fill:#fefdfe;"/><path d="M61.62,94.71c0,.94.03,1.88-.15,2.81h-5.88c-.05-.42-.02-.58-.3-.96.43.04.78,0,1.21-.05.57-.06,3.62-.37,3.82-.96.1-.29-.06-1.08,0-1.46.37-.05.1.4.25.5.04.03.88.03,1.06.1Z" style="fill:#b68474;"/><path d="M61.62,94.71c-.18-.07-1.01-.07-1.06-.1-.15-.1.11-.56-.25-.5.02-.09.08-.13.1-.3,0-.01.19-.07.2-.15.07-.5-.05-1.14,0-1.66.25.06.86-.13,1.01.15.06.11,0,2.22,0,2.56Z" style="fill:#c79c89;"/><path d="M60.62,91.99c-.05.52.07,1.16,0,1.66-.01.08-.2.14-.2.15,0-.47-.01-.95,0-1.41,0-.09.11-.11.1-.3,0-.07,0-.14,0-.2.12-.02.09.1.1.1Z" style="fill:#b68474;"/><path d="M60.42,92.39c-.01.46,0,.94,0,1.41-.02.18-.09.21-.1.3-.06.38.1,1.17,0,1.46-.2.59-3.25.89-3.82.96-.1-.24-.87.09-.7-.35.2-.55,4-3.11,4.62-3.77Z" style="fill:#ecdabb;"/><path d="M52.48,107.37c0,.1.06.45.1.5-.12-.02-.09.1-.1.1-.9.48-3.64,3.03-4.32,3.87-.13.16-.26.19-.2.45-.28,0-.91-.15-1.11.15.69.02.85.07,1.21.65-.26-.01-.56.03-.8,0-.21-.03-.45.09-.6-.15-.03-.24.04-.53,0-.75.56-1.27.4-3.34.4-4.83,1.81-.02,3.62-.1,5.43,0Z" style="fill:#ecdabb;"/><path d="M52.58,107.37s-.07,0-.1,0c-1.81-.1-3.61-.02-5.43,0v-.5c.45-.07,5.14-.12,5.38,0,.07.03.18.39.15.5Z" style="fill:#fdf6d9;"/><path d="M47.05,106.87v.5c0,1.48.16,3.56-.4,4.83-.11-.65-.24-5.14.05-5.33.11-.01.24.02.35,0Z" style="fill:#fefdfe;"/><path d="M53.58,107.47c0,.13.1.34.1.6,0,.03,0,.07,0,.1-.44,0-.82.1-1.11-.3-.04-.06-.11-.4-.1-.5.03,0,.07,0,.1,0,.31.02.67.19,1.01.1Z" style="fill:#e5bb9a;"/><path d="M52.48,107.98c.08.97.06,2.04,0,3.02-.37.21-.66.75-1.06.9s-1.35-.02-1.66.4c-.6,0-1.21-.01-1.81,0-.06-.27.07-.3.2-.45.69-.84,3.42-3.39,4.32-3.87Z" style="fill:#ecdabb;"/><path d="M53.68,108.18c0,1.62-.23,3.31-.1,4.93-1.84-.07-3.7.09-5.53,0-.36-.59-.52-.63-1.21-.65.19-.31.82-.14,1.11-.15.6-.01,1.21,0,1.81,0,.83,0,1.63.12,2.46.1.39-.36.22-.92.25-1.41.06-.98.08-2.04,0-3.02,0,0-.02-.12.1-.1.29.41.66.3,1.11.3Z" style="fill:#b68474;"/><path d="M49.76,112.3c.3-.42,1.27-.25,1.66-.4s.68-.7,1.06-.9c-.03.49.14,1.05-.25,1.41-.83.02-1.64-.1-2.46-.1Z" style="fill:#a1918d;"/><path d="M63.03,104.36c1.63,0,3.53.12,5.13,0,.1,0,.21.01.3,0,.14.19.18.7-.05.8-.77.34-5.02-.24-6.13-.1-.32-.23,0-.43-.05-.7h.8Z" style="fill:#520908;"/><path d="M69.06,102.25c-.02.57.08,1.15-.1,1.71-.04.11.06.32-.05.4-.15.01-.31-.02-.45,0-.1.01-.2,0-.3,0,.09-.47-.09-.64-.3-1.01.33-.33.17-.77.2-1.21.02-.26-.01-.54,0-.8.18.22.72.18.75.2.17.12-.15.73.25.7Z" style="fill:#7d5b59;"/><path d="M62.83,103.45l.2.9h-.8s-.19.03-.2-.05c-.05-.35.12-.58.1-.85.26.08.46,0,.7,0Z" style="fill:#b68474;"/><path d="M60.22,107.07l-5.48.1c-.2.14-.11,4.45-.05,4.93-.07,0-.13,0-.2,0-.07-.78-.15-4.08,0-4.72.03-.12.02-.46.15-.5.91.15,5.06-.29,5.58.2Z" style="fill:#fcf8ed;"/><path d="M54.69,112.1c.03.21-.09.45.15.6.23-.09.52.08.65.1v.2s-.48.21-.5.2c-.54-.08-.46-.61-.5-1.11.07,0,.14,0,.2,0Z" style="fill:#a1918d;"/><path d="M60.22,107.07c.12.11.18.34.2.5.09.75-.08,2.44-.1,3.32-.02.63.13,1.39-.2,1.91-.08-.46.1-.91.1-1.36,0-.08-.2-.04-.2-.05,0-.32.1-.65.2-.96l-.25-.25-1.26,1.71c-1.33.19-2.69.1-4.02.2-.06-.48-.15-4.78.05-4.93l5.48-.1Z" style="fill:#ee4538;"/><path d="M60.12,112.8s.19.34.5.2c-1.51,0-3.05.11-4.57.1-.08,0,.03.2-.2.2-.11,0-.07-.28-.35-.3v-.2c1.12.16,3.83-.29,4.62,0Z" style="fill:#78454d;"/><path d="M60.12,112.8c-.8-.29-3.51.16-4.62,0-.14-.02-.42-.19-.65-.1-.24-.16-.12-.39-.15-.6,1.33-.1,2.69-.01,4.02-.2.44-.06,1.03-.11,1.31-.5,0,.01.2-.03.2.05,0,.45-.18.89-.1,1.36Z" style="fill:#ac3432;"/><path d="M60.02,111.39c-.28.4-.86.44-1.31.5l1.26-1.71.25.25c-.1.3-.21.63-.2.96Z" style="fill:#bd4835;"/><path d="M61.93,110.19c.07.63.08,1.38.1,2.01,0,.07,0,.13,0,.2,0,.1.01.21,0,.3-.85.13-.45-1.5-.5-2.06,0-.08-.2-.14-.2-.15-.03-.4.02-.81,0-1.21.57-.45.55.45.6.9Z" style="fill:#7e3f28;"/><path d="M60.52,84.85s-.09-.05-.1.2c-.16-.12-.07-.32-.35-.4-.94-.28-3.67.16-4.83-.1-.52.23.39,4.51-.65,4.93-.11-.98-.14-4.1,0-5.03.03-.17-.03-.14.1-.3.8.1,1.63-.09,2.41-.1,1.11-.01,2.26.15,3.37,0,.25.13.06.56.05.8Z" style="fill:#fcf8ed;"/><path d="M60.42,85.05c0,.13,0,.27,0,.4l-4.72,4.02c-.11.03-.32-.06-.4.05.14.27.27.55.3.85-.12,0-.52.2-.75.1-.16-.07-.23-.8-.25-1.01,1.04-.41.13-4.69.65-4.93,1.15.26,3.89-.18,4.83.1.28.08.2.28.35.4Z" style="fill:#fee3ae;"/><path d="M60.62,85.05c.03.18,0,.41,0,.6.01.82-.16,1.63-.1,2.46l1.01-.05c-.01.32.05,2.24-.05,2.31-1.96-.01-3.92.01-5.88,0-.03-.3-.16-.59-.3-.85.09-.11.29-.02.4-.05s.38-.09.5-.1l3.77.3c.48-.28.23-.86.25-1.11.11-1.05.16-2.06.2-3.12,0-.13,0-.27,0-.4,0-.25.1-.19.1-.2,0,.09.09.1.1.2Z" style="fill:#b68474;"/><path d="M61.52,85.16c.02.23-.02.47,0,.7l-.9-.2c0-.19.03-.42,0-.6.21-.11.83.11.9.1Z" style="fill:#fdcb99;"/><path d="M61.52,85.86c.07.72.02,1.49,0,2.21l-1.01.05c-.06-.83.11-1.64.1-2.46l.9.2Z" style="fill:#c79c89;"/><path d="M60.42,85.46c-.04,1.05-.1,2.07-.2,3.12-1.11.88-2.68.64-4.02.8-.12.01-.4.07-.5.1l4.72-4.02Z" style="fill:#edceac;"/><path d="M56.2,89.38c1.34-.16,2.91.08,4.02-.8-.02.25.23.83-.25,1.11l-3.77-.3Z" style="fill:#b68474;"/><path d="M64.64,112.3c1.03-.11,2.08.18,3.12.1-.05.18.03.5,0,.7-1.2.02-2.42,0-3.62,0-.05-.22,0-.3-.2-.5.05-.02-.24-.2.7-.3Z" style="fill:#58626f;"/><path d="M68.96,112.6c-.02.22.08.45-.15.6-.35-.01-.7-.11-1.06-.1.03-.21-.05-.53,0-.7.08-.29.66-.95.6-1.51.08.86-.33,1.92.6,1.71Z" style="fill:#78454d;"/><path d="M64.64,112.3c-.94.1-.65.28-.7.3-.36.12-1.02-.29-.9.5-.03,0-.07,0-.1,0,.08-.88-.28-.63-.9-.7,0-.07,0-.13,0-.2.3.11.29-.21.4-.2.07,0,.18.35.55.2.03-.01.22-.4.4-.5,1.29-.73,2.57-2.04,3.57-3.22.14-.16.33-.26.5-.5.7,0-.05,1.15-.1,1.46-.12.65.24.78-.2,1.61-.77,1.44-1.47.59-2.51,1.26Z" style="fill:#51b7c4;"/><path d="M67.76,107.37s.01.07,0,.1c-.06.16-.2.36-.3.5-.17.24-.36.34-.5.5-1.64-.3-2.82.73-4.42.7,0-.28-.05-1.84.05-1.91l5.18.1Z" style="fill:#97e2ea;"/><path d="M68.16,107.98c.16.85.12,2.08.2,2.92.06.56-.52,1.21-.6,1.51-1.04.08-2.08-.21-3.12-.1,1.05-.67,1.74.19,2.51-1.26.44-.82.09-.96.2-1.61.05-.31.8-1.46.1-1.46.1-.14.24-.34.3-.5.18.06.37.34.4.5Z" style="fill:#51b7c4;"/><path d="M67.76,107.37l-5.18-.1c-.1.07-.04,1.63-.05,1.91-.03.94.06,1.88-.1,2.81-.11,0-.1.31-.4.2-.02-.63-.03-1.38-.1-2.01-.11-1.05.11-2.19.1-3.22,1.72-.11,3.51-.2,5.23-.1.36.02.48-.19.7.15.05.12-.2.33-.2.35Z" style="fill:#f0f8f6;"/><path d="M66.95,108.48c-1,1.17-2.28,2.48-3.57,3.22-.18.1-.37.49-.4.5-.38.15-.48-.2-.55-.2.16-.93.07-1.87.1-2.81,1.6.03,2.79-1,4.42-.7Z" style="fill:#70d0da;"/><path d="M67.86,98.63c.01.08.01.22,0,.3-.11.87-1.37,1.29-1.96,1.81-.51.46-2.97,3.22-3.57,2.46.69-1.06.27-1.78,0-2.76.75-.04-.08-1.69.35-1.91l5.18.1Z" style="fill:#ecdabb;"/><path d="M68.96,99.63c.16.84.13,1.76.1,2.61-.4.02-.08-.59-.25-.7-.03-.02-.57.02-.75-.2.03-.72-.02-1.44,0-2.16.37.2.27.6.9.45Z" style="fill:#9e786f;"/><path d="M67.96,84.35c.04.17.08.52.1.7.01.1,0,.2,0,.3l-5.03,4.12c-.21-.03-.39-.03-.6-.1-.1-.04-.34.06-.4-.05.11-1.09-.1-2.19-.1-3.27l.7.65.05-2.36h5.28Z" style="fill:#fee3ae;"/><path d="M68.26,85.05c-.06.7.16.77.8.7.05.52.05,4.51-.15,4.62-1.95-.08-3.93.11-5.88,0-.23-.46.13-.86-.6-.8v-.2c.21.07.39.07.6.1.27.04.62-.02.9,0,.64.05,3.33.37,3.77.2.39-.15.33-1.09.35-1.41.06-.83.06-2.09,0-2.92,0-.1.01-.2,0-.3h.2Z" style="fill:#9e786f;"/><path d="M67.96,84.35h-5.28l-.05,2.36-.7-.65c0-.35-.04-.78,0-1.11.02-.15-.04-.48,0-.55.33-.66,5.07-.22,5.98-.35.1.05.03.22.05.3Z" style="fill:#fcf8ed;"/><path d="M69.06,85.66s0,.07,0,.1c-.64.07-.87,0-.8-.7.15,0,.58-.03.65,0,.23.1.13.42.15.6Z" style="fill:#e5bb9a;"/><path d="M62.43,89.58c.74-.06.37.34.6.8-.07,0-.14,0-.2,0-.17-.01-.73.05-.8-.05v-.7c.06-.09.29-.04.4-.05Z" style="fill:#c79c89;"/><path d="M68.06,85.36c.06.83.06,2.08,0,2.92-1.1,1.31-2.61.82-4.12,1.21-.29-.02-.63.04-.9,0l5.03-4.12Z" style="fill:#ecdabb;"/><path d="M63.94,89.48c1.52-.38,3.03.11,4.12-1.21-.02.32.04,1.26-.35,1.41-.44.17-3.13-.15-3.77-.2Z" style="fill:#c79c89;"/><path d="M76.3,91.09c-.02.23,0,.47,0,.7-.02.65.08,1.16,0,1.91,0,.03,0,.07,0,.1h-.96c-.19.43.69.51.96.4l.1.7s-.07,0-.1,0c-.07,0-.13,0-.2,0-.29,0-.82-.05-1.11-.1v-3.42c.18-.04.19-.15.2-.3h1.11Z" style="fill:#a8abcf;"/><path d="M75,91.39v3.42s-.14.23-.3-.05c.44-1.63-.26-4.41.1-5.88,0-.01.15-.19.2-.2v2.71Z" style="fill:#9c3f2a;"/><path d="M89.27,88.67c.1,0,.2,0,.3,0,.95.01,1.91-.01,2.87,0,.25.11.13.96.15,1.21h-.2c-.01-.13.02-.29,0-.4-.04-.17-.02-.35-.15-.5-5.18.25-10.69-.34-15.83,0-.25.02-1.09-.1-1.21.15-.04.64.06,1.32,0,1.96-.01.16-.02.26-.2.3v-2.71c4.75.06,9.52-.08,14.28,0Z" style="fill:#fefdfe;"/><path d="M92.29,94.91c-.02.23.11,1.04-.05,1.11-1.06,0-2.11-.01-3.17,0-2.08.03-4.17-.11-6.23-.1l-.15-.9c-.36.14-1.16.38-1.51.4-.76.05-4.09.12-4.62-.1-.19-.08-.25-.21-.25-.4.03,0,.07,0,.1,0,5.29.04,10.6-.18,15.88,0Z" style="fill:#472541;"/><path d="M92.29,93.8c-.02.37.03.74,0,1.11-5.29-.18-10.6.04-15.88,0l-.1-.7c.11-.04.07-.05.1-.1l15.68-.3c.06.01.14,0,.2,0Z" style="fill:#6d8dd8;"/><path d="M86.25,91.79c-.19-.01-.47.18-.7.2-1.26.09-2.38.5-3.47.6-1.65.15-4.54-.81-5.48,1.11-.09-.02-.21.01-.3,0,.08-.75-.02-1.26,0-1.91.49.77,1.5.84,1.71-.2.59.07,1.64.34,2.01-.1.15.18.14.65.45.8s1.96.13,2.31,0c.69-.26.49-.91.7-1.01.3-.13,2.32.11,2.81,0l-.05.5Z" style="fill:#7284b2;"/><path d="M76.6,93.7c1.77.44,5.37,0,7.34,0s6.38-.23,8.14.1l-15.68.3c.12-.19-.1-.29-.1-.3,0-.03,0-.07,0-.1.1.01.22-.02.3,0Z" style="fill:#83a7e2;"/><path d="M76.4,88.98l.1,1.21c-.24.39-.16.5-.2.9h-1.11c.06-.64-.04-1.32,0-1.96.11-.25.96-.13,1.21-.15Z" style="fill:#cac7df;"/><path d="M76.3,93.8s.22.11.1.3c-.03.05.01.06-.1.1-.26.1-1.15.03-.96-.4h.96Z" style="fill:#c6d7f9;"/><path d="M92.59,89.88c.11,1.64-.02,3.34-.1,4.98l-.2.05c.03-.36-.02-.74,0-1.11.06-1.2.18-2.41.1-3.62,0-.1,0-.2,0-.3h.2Z" style="fill:#a5a3af;"/><path d="M92.39,89.48c.02.11-.01.27,0,.4,0,.1,0,.2,0,.3-.34-.08-.43.27-.6.5-.84-.11-1.68,0-2.51,0-1.06,0-1.73.16-2.61.2s-2.28.14-3.07.1c-.08,0-.51-.4-.6-.4-.73-.06-1.44.03-2.16.1-.16.01-.31.08-.5.1-.8.1-1.6.3-2.41.3,0-.86-.07-.93-.9-1.31.04-.03.2-.27.35-.3h15.03Z" style="fill:#888fb3;"/><path d="M92.39,89.48h-15.03c-.15.04-.31.27-.35.3-.09.06-.48.37-.5.4l-.1-1.21c5.15-.34,10.65.25,15.83,0,.14.15.12.33.15.5Z" style="fill:#a8abcf;"/><path d="M92.39,90.18c.07,1.21-.04,2.42-.1,3.62-.06,0-.14.01-.2,0-1.76-.33-6.12-.11-8.14-.1l1.61-1.71c.23-.02.52-.21.7-.2.26.02.25.16.4.2.02,0,.22.27.35.3.86.22,2.88.2,2.56-1.11.41-.09,1.79.13,2.06,0,.24-.11.11-.45.15-.5.17-.23.26-.58.6-.5Z" style="fill:#52618e;"/><path d="M85.55,91.99l-1.61,1.71c-1.97,0-5.56.44-7.34,0,.94-1.92,3.82-.95,5.48-1.11,1.09-.1,2.21-.51,3.47-.6Z" style="fill:#596da3;"/><path d="M86.66,90.89l-.15.5c.48-.28,2.51-.45,2.56.25s-.37.31-.75.55l-1.66-.2c-.15-.04-.14-.18-.4-.2l.05-.5c-.49.11-2.51-.13-2.81,0-.22.09-.02.75-.7,1.01-.35.13-2.01.15-2.31,0-.32-.16-.3-.62-.45-.8-.31-.37-1.41-.21-2.01-.1,0-.06-.1-.11-.1-.3.81,0,1.62-.2,2.41-.3-.1.22-.31.21-.05.4.25.01.51-.02.75,0l-.25,1.01c1.43-.08,1.58.42,2.16-.9,0-.02.25,0,.3-.15l-.15-.25c-.66-.1-1.89.32-2.26-.2.72-.07,1.43-.16,2.16-.1.09,0,.52.4.6.4.79.04,2.22-.06,3.07-.1Z" style="fill:#66617c;"/><path d="M80.02,91.49c-.38.44-1.42.17-2.01.1.01-.06,0-.14,0-.2.6-.11,1.7-.27,2.01.1Z" style="fill:#8499c2;"/><path d="M77.91,91.09c0,.19.11.24.1.3s.01.14,0,.2c-.21,1.04-1.22.97-1.71.2,0-.23-.02-.48,0-.7.04-.4-.04-.51.2-.9.02-.03.41-.34.5-.4.83.38.9.44.9,1.31Z" style="fill:#9e2f39;"/><path d="M77.41,90.58c.01.07-.03.12-.1.1-.25-.07-.27-.25-.5.1,0-.08-.01-.11-.1-.1.05-.1.1-.2.15-.3.36-.04.34-.02.55.2Z" style="fill:#fcf8ed;"/><path d="M76.8,90.78c.01.12.07.62-.1.65,0-.28-.13-.48,0-.75.09-.01.09.03.1.1Z" style="fill:#c95a4d;"/><path d="M77.31,90.68c.07.02.11-.03.1-.1.41.42-.11.77-.1.1Z" style="fill:#ee7f59;"/><path d="M89.27,90.68c.13.22.23.22.3.5.31,1.31-1.7,1.33-2.56,1.11-.13-.03-.33-.3-.35-.3l1.66.2c.39-.24.81.13.75-.55s-2.08-.54-2.56-.25l.15-.5c.89-.04,1.55-.19,2.61-.2Z" style="fill:#3d3853;"/><path d="M91.78,90.68c-.04.05.09.39-.15.5-.27.13-1.65-.09-2.06,0-.07-.28-.17-.29-.3-.5.83,0,1.67-.11,2.51,0Z" style="fill:#7284b2;"/><path d="M80.83,90.68c.37.52,1.6.1,2.26.2l.15.25c-.06.16-.29.14-.3.15-.59-.21-1.29-.06-1.91-.1-.25-.02-.5.01-.75,0-.26-.19-.05-.18.05-.4.2-.03.34-.09.5-.1Z" style="fill:#3d3853;"/><path d="M82.94,91.29c-.58,1.32-.73.83-2.16.9l.25-1.01c.62.04,1.32-.11,1.91.1Z" style="fill:#797b94;"/><path d="M60.42,98.63c-.81.21-5.08-.49-5.33.15-.31.8.3,3.64-.1,4.67-.02,0-.07.18-.3.1-.14-1.74-.11-3.48-.1-5.23.37-.06.63-.09,1.01-.1,1.56-.03,3.12.05,4.67-.1.23.14.12.32.15.5Z" style="fill:#fefdfe;"/><path d="M55.29,103.55c.18.12.35.57.3.8-.01,0,.05.11-.2.1-.11,0-.78-.12-.8-.15-.11-.19.1-.72.1-.75.23.08.29-.1.3-.1.13,0,.2.03.3.1Z" style="fill:#c79c89;"/><path d="M60.42,98.63c.02.09,0,.2,0,.3.01.16,0,.34,0,.5-1.99.9-3.35,2.88-5.03,4.02-.02.01-.12-.02-.1.1-.1-.07-.17-.1-.3-.1.4-1.04-.21-3.87.1-4.67.25-.64,4.51.06,5.33-.15Z" style="fill:#fee3ae;"/><path d="M60.72,98.93c-.28.85.18.75.9.8,0,.03,0,.07,0,.1.05.72-.08,1.41-.1,2.11-1.06-.11-.97-.25-1.11-1.21,0-.43.02-.88,0-1.31,0-.17.01-.34,0-.5.1,0,.2-.01.3,0Z" style="fill:#c79c89;"/><path d="M61.62,99.73c-.72-.06-1.18.05-.9-.8.24.03.82-.03.85,0,.11.08.04.64.05.8Z" style="fill:#e5bb9a;"/><path d="M61.52,101.94c-.02.7.22,1.53.1,2.26-.05.11-.59.24-.7.25-.04,0-.46-.11-.7-.1-.03-.3.13-.68-.2-.8.43-.69.39-1.95.4-2.81.14.96.04,1.1,1.11,1.21Z" style="fill:#9e786f;"/><path d="M60.02,103.55c.33.12.17.51.2.8-1.46.06-3.16.06-4.62,0,.05-.23-.13-.68-.3-.8-.02-.12.08-.09.1-.1,1.01.16,3.81-.2,4.62.1Z" style="fill:#9e786f;"/><path d="M60.42,99.43c.02.43,0,.88,0,1.31-.01.87.03,2.13-.4,2.81-.82-.3-3.62.06-4.62-.1,1.68-1.14,3.04-3.12,5.03-4.02Z" style="fill:#ecdabb;"/><path d="M68.16,104.36c-1.6.12-3.49,0-5.13,0l-.2-.9c.17,0,.34,0,.5,0,.74,0,4.21.21,4.52-.1.21.36.39.53.3,1.01Z" style="fill:#7f636a;"/><path d="M68.06,102.14c-.03.44.13.88-.2,1.21s-3.78.1-4.52.1c.95-.36,2.71-.03,3.57-.4.45-.2.57-1,1.16-.9Z" style="fill:#b7a398;"/><path d="M67.86,91.99c-.07.04-.69,1-1.06,1.31-1.23,1.02-2.55,1.91-3.67,3.07l1.21.15c-.77,0-1.54,0-2.31,0-.02-1.02-.1-2.1-.1-3.12l.6.65.15-2.56c.22-.1,4.31.03,4.72.1.13.02.52.17.45.4Z" style="fill:#fee3ae;"/><path d="M69.06,93.4c.09,1.37-.15,2.75-.15,4.12h-6.89c-.03-.33,0-.68,0-1.01.77,0,1.54,0,2.31,0,.17,0,.33,0,.5,0,.47,0,2.63.23,2.76.2.49-.12.42-.97.45-1.31.06-.62.03-1.38,0-2.01h1.01Z" style="fill:#9e786f;"/><path d="M62.53,91.19c1.64-.21,3.69.15,5.38,0,.11.08.02.63.05.8-.03.01-.08-.01-.1,0,.06-.23-.33-.38-.45-.4-.42-.07-4.51-.2-4.72-.1l-.15,2.56-.6-.65c0-.69,0-1.37,0-2.06.16-.24.39-.12.6-.15Z" style="fill:#fefdfe;"/><path d="M69.06,93.4h-1.01c-.02-.51-.02-.89-.1-1.41,1.24-.39,1.05.55,1.11,1.41Z" style="fill:#b68474;"/><path d="M68.06,93.4c.03.63.06,1.39,0,2.01-.63-.28-.7.49-1.26.7-.46.17-1.48.01-1.96.4-.17,0-.33,0-.5,0l-1.21-.15c1.12-1.16,2.44-2.05,3.67-3.07.37-.31.98-1.27,1.06-1.31.02-.01.07.01.1,0,.08.52.08.89.1,1.41Z" style="fill:#ecdabb;"/><path d="M68.06,95.41c-.03.33.04,1.19-.45,1.31-.13.03-2.3-.19-2.76-.2.48-.39,1.5-.23,1.96-.4.56-.21.63-.98,1.26-.7Z" style="fill:#c79c89;"/></g></svg>